<?xml version="1.0" encoding="UTF-8"?>
<svg width="404px" height="366px" viewBox="0 0 404 366" version="1.1" xmlns="http://www.w3.org/2000/svg" xmlns:xlink="http://www.w3.org/1999/xlink">
    <title>card-water</title>
    <g id="Page-1" stroke="none" stroke-width="1" fill="none" fill-rule="evenodd">
        <g id="card-water">
            <path d="M392,0 L12,0 C5.37258,0 0,5.37259 0,12 L0,354 C0,360.627 5.37258,366 12,366 L392,366 C398.627,366 404,360.627 404,354 L404,12 C404,5.37258 398.627,0 392,0 Z" id="Path" fill="#151226" fill-rule="nonzero"></path>
            <line x1="26.5" y1="250.5" x2="377.5" y2="250.5" id="Path" stroke-opacity="0.15" stroke="#FFFFFF" stroke-linecap="round" stroke-dasharray="4"></line>
            <path d="M260.482,148.328 C260.287,146.552 261.677,145 263.464,145 L316.536,145 C318.323,145 319.713,146.552 319.518,148.328 L309.398,240.328 C309.231,241.849 307.946,243 306.416,243 L273.584,243 C272.054,243 270.769,241.849 270.602,240.328 L260.482,148.328 Z" id="Path" stroke-opacity="0.5" stroke="#FFFFFF" stroke-width="2"></path>
            <path d="M282.5,169 L281.328,167.772 C276.058,162.251 267.433,161.697 261.5,166.5 L269.609,240.436 C269.832,242.464 271.545,244 273.585,244 L306.422,244 C308.46,244 310.171,242.469 310.398,240.445 L318.5,168 L318.222,166.935 C315.841,157.807 304.11,155.236 298.13,162.532 L292.699,169.158 C290.041,172.4 285.056,172.323 282.5,169 Z" id="Path" fill="#33C6F5" fill-rule="nonzero"></path>
            <circle id="Oval" fill-opacity="0.6" fill="#FFFFFF" fill-rule="nonzero" cx="273.5" cy="175.5" r="1.5"></circle>
            <circle id="Oval" fill-opacity="0.6" fill="#FFFFFF" fill-rule="nonzero" cx="292.5" cy="194.5" r="2.5"></circle>
            <circle id="Oval" fill-opacity="0.6" fill="#FFFFFF" fill-rule="nonzero" cx="303.5" cy="175.5" r="2.5"></circle>
            <circle id="Oval" fill-opacity="0.6" fill="#FFFFFF" fill-rule="nonzero" cx="302.5" cy="214.5" r="1.5"></circle>
            <circle id="Oval" fill-opacity="0.6" fill="#FFFFFF" fill-rule="nonzero" cx="277.5" cy="231.5" r="2.5"></circle>
            <path d="M174.482,148.328 C174.287,146.552 175.677,145 177.464,145 L230.536,145 C232.323,145 233.713,146.552 233.518,148.328 L223.398,240.328 C223.231,241.849 221.946,243 220.416,243 L187.584,243 C186.054,243 184.769,241.849 184.602,240.328 L174.482,148.328 Z" id="Path" stroke-opacity="0.5" stroke="#FFFFFF" stroke-width="2"></path>
            <path d="M178.135,178.991 L177,180 L183.61,240.435 C183.832,242.464 185.546,244 187.586,244 L220.414,244 C222.455,244 224.168,242.464 224.39,240.435 L231.5,175.5 L225.686,175.5 C223.456,175.5 221.449,174.152 220.604,172.089 C219.034,168.25 214.259,166.931 210.941,169.419 L202.9,175.45 C200.801,177.024 198.014,177.34 195.616,176.274 C189.76,173.671 182.924,174.734 178.135,178.991 Z" id="Path" fill="#33C6F5" fill-rule="nonzero"></path>
            <circle id="Oval" fill-opacity="0.6" fill="#FFFFFF" fill-rule="nonzero" transform="translate(216.500000, 192.500000) scale(-1, 1) translate(-216.500000, -192.500000) " cx="216.5" cy="192.5" r="1.5"></circle>
            <circle id="Oval" fill-opacity="0.6" fill="#FFFFFF" fill-rule="nonzero" transform="translate(203.500000, 208.500000) scale(-1, 1) translate(-203.500000, -208.500000) " cx="203.5" cy="208.5" r="2.5"></circle>
            <circle id="Oval" fill-opacity="0.6" fill="#FFFFFF" fill-rule="nonzero" transform="translate(193.500000, 189.500000) scale(-1, 1) translate(-193.500000, -189.500000) " cx="193.5" cy="189.5" r="2.5"></circle>
            <circle id="Oval" fill-opacity="0.6" fill="#FFFFFF" fill-rule="nonzero" transform="translate(194.500000, 230.500000) scale(-1, 1) translate(-194.500000, -230.500000) " cx="194.5" cy="230.5" r="1.5"></circle>
            <path d="M88.4821,148.328 C88.2868,146.552 89.6774,145 91.4641,145 L144.536,145 C146.323,145 147.713,146.552 147.518,148.328 L137.398,240.328 C137.231,241.849 135.946,243 134.416,243 L101.584,243 C100.054,243 98.7694,241.849 98.6021,240.328 L88.4821,148.328 Z" id="Path" stroke-opacity="0.5" stroke="#FFFFFF" stroke-width="2"></path>
            <path d="M94.6997,196.989 L93,198.5 L97.6085,240.437 C97.8313,242.465 99.5445,244 101.585,244 L134.416,244 C136.456,244 138.169,242.465 138.392,240.437 L143.5,194 L136.04,191.099 C135.028,190.706 134.127,190.073 133.412,189.256 C130.293,185.692 124.74,185.72 121.658,189.316 L118.524,192.972 C116.729,195.066 113.774,195.733 111.254,194.613 L110.926,194.467 C105.491,192.051 99.1451,193.038 94.6997,196.989 Z" id="Path" fill="#33C6F5" fill-rule="nonzero"></path>
            <circle id="Oval" fill-opacity="0.6" fill="#FFFFFF" fill-rule="nonzero" cx="108.5" cy="207.5" r="1.5"></circle>
            <circle id="Oval" fill-opacity="0.6" fill="#FFFFFF" fill-rule="nonzero" cx="121.5" cy="223.5" r="2.5"></circle>
            <circle id="Oval" fill-opacity="0.6" fill="#FFFFFF" fill-rule="nonzero" cx="131.5" cy="204.5" r="2.5"></circle>
            <text id="Water" font-family="ArialUnicodeMS, Arial Unicode MS" font-size="28" font-weight="normal" fill="#FFFFFF">
                <tspan x="164.662109" y="54">Water</tspan>
            </text>
            <text id="Fill-the-quiz-to-see" font-family="ArialUnicodeMS, Arial Unicode MS" font-size="12" font-weight="normal" fill="#FFFFFF">
                <tspan x="66.2675781" y="326">Fill the quiz to see your recommended water intake</tspan>
            </text>
        </g>
    </g>
</svg>