<svg version="1.1" xmlns="http://www.w3.org/2000/svg" x="0px" y="0px" viewBox="0 0 200 200" style="enable-background:new 0 0 200 200;" xml:space="preserve">
<linearGradient id="Read_1_" gradientUnits="userSpaceOnUse" x1="1.9204" y1="100" x2="198.0796" y2="100">
<stop offset="0" style="stop-color:#F53373" />
<stop offset="1" style="stop-color:#BF51E8" />
</linearGradient>
<linearGradient id="Read_2_" gradientUnits="userSpaceOnUse" x1="1.4204" y1="100" x2="198.5796" y2="100">
<stop offset="0" style="stop-color:#F53373" />
<stop offset="1" style="stop-color:#BF51E8" />
</linearGradient>
<path style="fill:url(#Read_1_);stroke:url(#Read_2_);stroke-miterlimit:10;" id="Read" d="M198.1,119.2c0-5-4-9-9-9c-1.8,0-3.5,0.5-4.9,1.5c-0.5-1.2-1.3-2.2-2.3-3.1V29.9
                    c0-1.4-1.1-2.4-2.4-2.4h-10.9V12.6c0-0.7-0.3-1.3-0.8-1.8c-0.5-0.5-1.2-0.7-1.8-0.7c-1.1,0.1-2.3,0.1-3.5,0.2
                    c-18.7,1.2-49.7,3.1-70.5,17.7C71.1,13.4,40.1,11.5,21.4,10.4c-1.2-0.1-2.4-0.1-3.5-0.2c-0.7,0-1.3,0.2-1.8,0.7
                    c-0.5,0.5-0.8,1.1-0.8,1.8v14.8H4.4c-1.4,0-2.4,1.1-2.4,2.4v99.6c0,1.4,1.1,2.4,2.4,2.4h136.4l0,1.4v9.5l-6-3.4c0,0-0.1,0-0.1-0.1
                    c-3.2-1.6-6.4-2.7-11.4-2.7c-0.1,0-0.2,0-0.3,0c-5.1,0.5-13.7,3.3-13.7,10.5v1c0,0.1,0,0.2,0,0.3c0.6,4.2,4.1,7.1,8.7,7.2
                    c0,0,0,0,0.1,0h3.4c0,0,0.1,0,0.1,0c0.1,0,0.1,0,0.2,0c5.4,0,13.8,8.9,19.7,17.8v9.8c0,3.5,2.9,6.4,6.4,6.4h44
                    c3.5,0,6.4-2.9,6.4-6.4V170H198l0.1-35.7V119.2z M176.9,106.5c-0.3,0-0.6-0.1-1-0.1c-2.1,0-4,0.7-5.6,1.9c-0.5-0.8-1.1-1.5-1.9-2.1
                    V32.3h8.4V106.5z M162.7,15.2c0.3,0,0.6,0,1-0.1v14.7v74.3c-0.3,0-0.6,0-0.9,0c-1.5,0-3,0.4-4.2,1l0-11.5c0-5-4-9-9-9c-5,0-9,4-9,9
                    l0,11.3c-0.1,0-0.2,0-0.3,0c-1.9,0.2-3.7,0.5-5.5,0.7c-2.7,0.4-5.3,0.9-7.7,1.3c-1.8,0.3-3.5,0.7-5.2,1.1c0,0,0,0,0,0
                    c-0.9,0.2-1.7,0.4-2.6,0.6c0,0,0,0,0,0c-2.7,0.7-5.2,1.5-7.7,2.3c0,0,0,0,0,0c-3.5,1.2-6.8,2.5-9.9,4c0,0,0,0,0,0
                    c-1.6,0.8-3.2,1.6-4.7,2.5c0,0,0,0,0,0c-0.9,0.5-1.8,1.1-2.7,1.6V32.4C113.9,18.2,144.4,16.4,162.7,15.2z M20.1,15.2
                    c0.3,0,0.6,0,1,0.1c18.3,1.1,48.7,3,68.4,17.1v86.9c-0.9-0.6-1.8-1.1-2.7-1.6c0,0,0,0,0,0c-1.5-0.9-3.1-1.7-4.7-2.5l0,0l0,0
                    c-3.1-1.5-6.4-2.8-9.9-4c0,0,0,0,0,0c-2.4-0.8-5-1.6-7.7-2.3c0,0,0,0,0,0c-0.9-0.2-1.7-0.4-2.6-0.6c0,0,0,0,0,0
                    c-1.7-0.4-3.4-0.8-5.2-1.1c0,0,0,0,0,0c-1.7-0.3-3.4-0.6-5.2-0.9c0,0,0,0,0,0c-0.9-0.1-1.7-0.3-2.6-0.4c-3.9-0.6-7.9-1.1-12.4-1.5
                    c-4.3-0.4-8.2-0.7-11.2-0.9h0c-1.4-0.1-2.7-0.2-4-0.2h0l-0.4,0c-0.3,0-0.7,0-1-0.1V29.9V15.2z M6.8,127V32.3h8.4v73
                    c0,1.3,1,2.4,2.3,2.4c1,0.1,2.1,0.1,3.3,0.2l0.4,0l0,0c1.3,0.1,2.6,0.2,4,0.2h0c2.9,0.2,6.8,0.5,11,0.9c4.4,0.4,8.3,0.9,12.1,1.5
                    c0.8,0.1,1.7,0.3,2.5,0.4c0,0,0,0,0,0c1.7,0.3,3.4,0.6,5,0.9l0,0c1.7,0.3,3.4,0.7,5,1.1c0,0,0,0,0,0c0.8,0.2,1.7,0.4,2.5,0.6
                    c0,0,0,0,0,0c2.6,0.7,5,1.4,7.3,2.2c0,0,0,0,0,0c3.3,1.1,6.5,2.4,9.3,3.8l0,0c1.5,0.7,3,1.5,4.4,2.3c0,0,0,0,0,0
                    c1.4,0.8,2.8,1.7,4.1,2.6c0,0,0,0,0,0c0.7,0.5,1.3,0.9,2,1.4c0,0,0,0,0,0c0,0,0.1,0.1,0.1,0.1c0,0,0.1,0,0.1,0.1c0,0,0.1,0,0.1,0.1
                    c0,0,0,0,0,0c0,0,0.1,0,0.1,0c0.1,0,0.1,0,0.2,0.1c0,0,0,0,0.1,0c0,0,0,0,0,0c0.1,0,0.1,0,0.2,0c0,0,0,0,0.1,0c0,0,0.1,0,0.1,0
                    c0,0,0.1,0,0.1,0c0,0,0,0,0,0c0,0,0,0,0.1,0c0.1,0,0.2,0,0.3,0l0,0h0h0h0h0c0,0,0,0,0,0c0.1,0,0.2,0,0.3,0c0,0,0,0,0.1,0
                    c0,0,0,0,0,0c0,0,0.1,0,0.1,0c0,0,0.1,0,0.1,0c0,0,0,0,0.1,0c0.1,0,0.1,0,0.2,0c0,0,0,0,0,0c0,0,0,0,0.1,0c0.1,0,0.1,0,0.2-0.1
                    c0,0,0.1,0,0.1,0c0,0,0,0,0,0c0,0,0.1,0,0.1-0.1c0,0,0.1,0,0.1,0c0,0,0.1,0,0.1-0.1c0,0,0,0,0,0c0.6-0.5,1.3-1,2-1.4c0,0,0,0,0,0
                    c1.3-0.9,2.7-1.8,4.1-2.6c0,0,0,0,0,0c1.4-0.8,2.9-1.6,4.4-2.3c0,0,0,0,0,0c2.9-1.4,6-2.6,9.3-3.8c0,0,0,0,0,0
                    c2.3-0.8,4.8-1.5,7.3-2.2c0,0,0,0,0,0c0.8-0.2,1.7-0.4,2.5-0.6c0,0,0,0,0,0c1.6-0.4,3.3-0.8,5-1.1c2.4-0.5,4.9-0.9,7.5-1.3
                    c1.7-0.2,3.4-0.5,5.1-0.7l0,0.5c0,0.2,0,0.5,0,0.7l0.1,16H6.8z M193.2,183.5c0,0.8-0.7,1.5-1.5,1.5h-44c-0.8,0-1.5-0.7-1.5-1.5v-8.7
                    h46.9V183.5z M144.8,170c-4.5-6.6-14.4-19.3-23.4-19H118c-2.2-0.1-3.7-1.1-4-2.9v-0.9c0-4.2,8.2-5.5,9.3-5.7c4,0,6.4,0.8,9.1,2.1
                    l9.6,5.4c0.8,0.4,1.7,0.4,2.4,0c0.7-0.4,1.2-1.2,1.2-2.1v-13.7l-0.2-22.2c0-0.1,0-0.2,0-0.4c0-0.1,0-0.1,0-0.2l-0.1-16.8
                    c0-2.3,1.8-4.1,4.1-4.1s4.1,1.8,4.1,4.1l0.1,17.1c0,0,0,0.1,0,0.1c0,0.1,0,0.1,0,0.2l0.1,23.2v0c0,1.3,1.1,2.4,2.4,2.4c0,0,0,0,0,0
                    c1.3,0,2.4-1.1,2.4-2.4l0-21.1c0-2.3,1.8-4.1,4.1-4.1s4.1,1.8,4.1,4.1l0.1,21.1c0,1.3,1.1,2.4,2.4,2.4h0c1.3,0,2.4-1.1,2.4-2.4
                    v-18.8c0-2.3,1.8-4.1,4.1-4.1s4.1,1.8,4.1,4.1v3.8V134v0.3h0c0.1,1.2,1.2,2.2,2.4,2.2s2.3-0.9,2.4-2.2h0V134v-14.8
                    c0-2.3,1.8-4.1,4.1-4.1s4.1,1.8,4.1,4.1v14.1l-0.1,36.7H144.8z" />
</svg>