<svg version="1.1" xmlns="http://www.w3.org/2000/svg" x="0px" y="0px" viewBox="0 0 200 200" style="enable-background:new 0 0 200 200;" xml:space="preserve">
<symbol id="icon-have-energy" viewBox="0 0 24 24"><path d="M15.604 5.04h-.85V3.36a.35.35 0 0 0-.342-.36H9.386a.351.351 0 0 0-.34.36v1.68h-.65C7.626 5.04 7 5.7 7 6.514v13.012C7 20.34 7.626 21 8.396 21h7.208c.77 0 1.396-.661 1.396-1.474V6.514c0-.813-.626-1.474-1.396-1.474ZM9.727 3.72h4.344v1.32H9.727V3.72Zm6.591 15.806c0 .416-.32.754-.714.754H8.396c-.394 0-.714-.338-.714-.754V6.514c0-.416.32-.754.714-.754h7.208c.394 0 .714.338.714.754v13.012ZM13.961 11h-1.583l.757-2.305a.377.377 0 0 0-.044-.327.336.336 0 0 0-.278-.15h-1.445a.343.343 0 0 0-.32.234l-1.53 4.353a.377.377 0 0 0 .04.33.336.336 0 0 0 .28.155h1.545l-1.108 4.074a.366.366 0 0 0 .194.43c.044.02.089.029.134.029a.338.338 0 0 0 .295-.18l3.357-6.103a.377.377 0 0 0 .001-.36.338.338 0 0 0-.295-.18Z" fill="#fff"/></symbol></svg>