<?xml version="1.0" encoding="UTF-8"?>
<svg width="404px" height="366px" viewBox="0 0 404 366" version="1.1" xmlns="http://www.w3.org/2000/svg" xmlns:xlink="http://www.w3.org/1999/xlink">
    <title>card-appetite</title>
    <g id="Page-1" stroke="none" stroke-width="1" fill="none" fill-rule="evenodd">
        <g id="card-appetite" transform="translate(0.000000, -0.000061)">
            <path d="M392,0 L12,0 C5.37258,0 0,5.37259104 0,11.999961 L0,354.000061 C0,360.627061 5.37258,366.000061 12,366.000061 L392,366.000061 C398.627,366.000061 404,360.627061 404,354.000061 L404,11.999961 C404,5.37258104 398.627,0 392,0 Z" id="card-bgr" fill="#151226" fill-rule="nonzero"></path>
            <g id="chart" transform="translate(12.000000, 88.500061)">
                <g id="grid" transform="translate(15.000050, 0.000000)" stroke="#FFFFFF" stroke-dasharray="4" stroke-linecap="round" stroke-opacity="0.1">
                    <line x1="0.49995" y1="230" x2="0.50005" y2="0" id="Line"></line>
                    <line x1="29.49995" y1="230" x2="29.50005" y2="0" id="Line_2"></line>
                    <line x1="58.50005" y1="230" x2="58.50005" y2="0" id="Line_3"></line>
                    <line x1="87.49995" y1="230" x2="87.49995" y2="0" id="Line_4"></line>
                    <line x1="116.49995" y1="230" x2="116.49995" y2="0" id="Line_5"></line>
                    <line x1="145.49995" y1="230" x2="145.49995" y2="0" id="Line_6"></line>
                    <line x1="174.49995" y1="230" x2="174.49995" y2="0" id="Line_7"></line>
                    <line x1="203.49995" y1="230" x2="203.49995" y2="0" id="Line_8"></line>
                    <line x1="232.49995" y1="230" x2="232.49995" y2="0" id="Line_9"></line>
                    <line x1="261.49995" y1="230" x2="261.49995" y2="0" id="Line_10"></line>
                    <line x1="290.49995" y1="230" x2="290.49995" y2="0" id="Line_11"></line>
                    <line x1="319.49995" y1="230" x2="319.49995" y2="0" id="Line_12"></line>
                    <line x1="348.49995" y1="230" x2="348.49995" y2="0" id="Line_13"></line>
                </g>
                <path d="M19.6375,40.352 C19.0033,39.447 17.7561,39.228 16.8517,39.862 C15.9473,40.497 15.7283,41.744 16.3625,42.648 L19.6375,40.352 Z M362.214,201.488 C363.313,201.37 364.107,200.384 363.988,199.286 C363.87,198.187 362.884,197.393 361.786,197.512 L362.214,201.488 Z M162.303,90.855 L160.772,89.568 L162.303,90.855 Z M135.988,122.16 L134.457,120.874 L135.988,122.16 Z M16.3625,42.648 L70.9812,120.537 L74.2562,118.24 L19.6375,40.352 L16.3625,42.648 Z M137.519,123.447 L163.834,92.142 L160.772,89.568 L134.457,120.874 L137.519,123.447 Z M209.348,95.871 L250.538,165.292 L253.978,163.251 L212.788,93.83 L209.348,95.871 Z M329.846,204.977 L362.214,201.488 L361.786,197.512 L329.417,201 L329.846,204.977 Z M250.538,165.292 C266.923,192.908 297.92,208.418 329.846,204.977 L329.417,201 C299.049,204.274 269.564,189.52 253.978,163.251 L250.538,165.292 Z M163.834,92.142 C176.242,77.381 199.508,79.287 209.348,95.871 L212.788,93.83 C201.543,74.877 174.952,72.698 160.772,89.568 L163.834,92.142 Z M70.9812,120.537 C86.8213,143.125 119.767,144.566 137.519,123.447 L134.457,120.874 C118.396,139.981 88.588,138.677 74.2562,118.24 L70.9812,120.537 Z" id="curve" fill="#A8E532" fill-rule="nonzero"></path>
                <g id="pointers" transform="translate(0.000000, 25.500000)" fill="#33C6F5" fill-rule="nonzero">
                    <g id="5" transform="translate(348.000000, 158.000000)">
                        <circle id="Ellipse" opacity="0.2" cx="16" cy="16" r="16"></circle>
                        <circle id="Ellipse_2" cx="16" cy="16" r="9"></circle>
                    </g>
                    <g id="4" transform="translate(261.000000, 149.000000)">
                        <circle id="Ellipse_3" opacity="0.2" cx="16" cy="16" r="16"></circle>
                        <circle id="Ellipse_4" cx="16" cy="16" r="9"></circle>
                    </g>
                    <g id="3" transform="translate(174.000000, 39.000000)">
                        <circle id="Ellipse_5" opacity="0.2" cx="16" cy="16" r="16"></circle>
                        <circle id="Ellipse_6" cx="16" cy="16" r="9"></circle>
                    </g>
                    <g id="2" transform="translate(87.000000, 94.000000)">
                        <circle id="Ellipse_7" opacity="0.2" cx="16" cy="16" r="16"></circle>
                        <circle id="Ellipse_8" cx="16" cy="16" r="9"></circle>
                    </g>
                    <g id="1">
                        <circle id="Ellipse_9" opacity="0.2" cx="16" cy="16" r="16"></circle>
                        <circle id="Ellipse_10" cx="16" cy="16" r="9"></circle>
                    </g>
                </g>
            </g>
            <text id="Appetite" font-family="ArialUnicodeMS, Arial Unicode MS" font-size="28" font-weight="normal" fill="#FFFFFF">
                <tspan x="22" y="54.000061">Appetite</tspan>
            </text>
            <text id="Starting-keto" font-family="ArialUnicodeMS, Arial Unicode MS" font-size="12" font-weight="normal" fill="#FFFFFF">
                <tspan x="26" y="344.000061">Starting keto</tspan>
            </text>
            <text id="Sustaining-Keto-Life" font-family="ArialUnicodeMS, Arial Unicode MS" font-size="12" font-weight="normal" fill="#FFFFFF">
                <tspan x="256.292969" y="344.000061">Sustaining Keto Lifestyle</tspan>
            </text>
        </g>
    </g>
</svg>