<svg version="1.1" xmlns="http://www.w3.org/2000/svg" x="0px" y="0px" viewBox="0 0 200 200" style="enable-background:new 0 0 200 200;" xml:space="preserve">
<linearGradient id="SVGID_1_" gradientUnits="userSpaceOnUse" x1="37.6591" y1="100" x2="162.3409" y2="100">
<stop offset="0" style="stop-color:#F53373" />
<stop offset="1" style="stop-color:#BF51E8" />
</linearGradient>
<path style="fill:url(#SVGID_1_);" d="M162.3,37.6v147c0,5.1-4.2,9.3-9.3,9.3H47c-5.1,0-9.3-4.2-9.3-9.3v-147c0-5.1,4.2-9.3,9.3-9.3h8.5
                    c1.4,0,2.5,1.1,2.5,2.5c0,1.4-1.1,2.5-2.5,2.5H47c-2.4,0-4.3,1.9-4.3,4.3v147c0,2.4,1.9,4.3,4.3,4.3H153c2.4,0,4.3-1.9,4.3-4.3v-147
                    c0-2.4-1.9-4.3-4.3-4.3h-8.5c-1.4,0-2.5-1.1-2.5-2.5c0-1.4,1.1-2.5,2.5-2.5h8.5C158.2,28.3,162.3,32.5,162.3,37.6z M62.9,56.9
                    c0.1,0,0.6,0,1.1-0.1c1,0,2.1,0,3.1,0.3c0.6,0.1,1.3,0.3,1.9,0.5c5.7,2,9.1,8,8.1,13.9c-0.9,5.2-4.9,9.4-10,10.4
                    c-6.8,1.3-13.2-2.8-14.8-9.5C50.4,65.3,55.4,57.9,62.9,56.9z M57,70.6c1.4,1.4,2.7,2.7,4.1,4.1c0.7,0.7,1.9,0.7,2.7,0l8.3-8.3
                    c0.7-0.7,0.7-1.9,0-2.7L72,63.7c-0.7-0.7-1.9-0.7-2.7,0c-1.9,1.9-3.7,3.7-5.6,5.6c-0.7,0.7-1.9,0.7-2.7,0c-0.5-0.5-0.9-0.9-1.4-1.4
                    c-0.7-0.7-1.9-0.7-2.7,0C56.3,68.7,56.3,69.9,57,70.6z M143.1,60.4H88.4c-2.1,0-3.9,1.7-3.9,3.9c0,2.1,1.7,3.9,3.9,3.9h54.6
                    c2.1,0,3.9-1.7,3.9-3.9C146.9,62.1,145.2,60.4,143.1,60.4z M88.9,78.7h40.6c2.1,0,3.9-1.7,3.9-3.9s-1.7-3.9-3.9-3.9H88.9
                    c-2.1,0-3.9,1.7-3.9,3.9S86.8,78.7,88.9,78.7z M77.1,115.2c-0.9,5.2-4.9,9.4-10,10.4c-6.8,1.3-13.2-2.8-14.8-9.5
                    c-1.8-7.2,3.2-14.5,10.7-15.5c0.1,0,0.6,0,1.1-0.1c1,0,2.1,0,3.1,0.3c0.6,0.1,1.3,0.3,1.9,0.5C74.6,103.3,78.1,109.2,77.1,115.2z
                    M72.1,107.4L72.1,107.4c-0.8-0.8-2-0.8-2.7-0.1c-1.9,1.9-3.7,3.7-5.6,5.6c-0.7,0.7-1.9,0.7-2.7,0c-0.5-0.5-0.9-0.9-1.4-1.4
                    c-0.7-0.7-1.9-0.7-2.7,0c-0.7,0.7-0.7,1.9,0,2.7c1.4,1.4,2.7,2.7,4.1,4.1c0.7,0.7,1.9,0.7,2.7,0l8.3-8.3
                    C72.8,109.3,72.8,108.2,72.1,107.4z M143.1,104H88.4c-2.1,0-3.9,1.7-3.9,3.9c0,2.1,1.7,3.9,3.9,3.9h54.6c2.1,0,3.9-1.7,3.9-3.9
                    C146.9,105.7,145.2,104,143.1,104z M88.9,122.3H115c2.1,0,3.9-1.7,3.9-3.9s-1.7-3.9-3.9-3.9H88.9c-2.1,0-3.9,1.7-3.9,3.9
                    S86.8,122.3,88.9,122.3z M77.1,160.4c-0.9,5.2-4.9,9.4-10,10.4c-6.8,1.3-13.2-2.8-14.8-9.5c-1.8-7.2,3.2-14.5,10.7-15.5
                    c0.1,0,0.6,0,1.1-0.1c1,0,2.1,0,3.1,0.3c0.6,0.1,1.3,0.3,1.9,0.5C74.6,148.6,78.1,154.5,77.1,160.4z M72.1,152.7L72.1,152.7
                    c-0.8-0.8-2-0.8-2.7-0.1c-1.9,1.9-3.7,3.7-5.6,5.6c-0.7,0.7-1.9,0.7-2.7,0c-0.5-0.5-0.9-0.9-1.4-1.4c-0.7-0.7-1.9-0.7-2.7,0
                    c-0.7,0.7-0.7,1.9,0,2.7c1.4,1.4,2.7,2.7,4.1,4.1c0.7,0.7,1.9,0.7,2.7,0l8.3-8.3C72.8,154.6,72.8,153.4,72.1,152.7z M88.4,157h30.8
                    c2.1,0,3.9-1.7,3.9-3.9s-1.7-3.9-3.9-3.9H88.4c-2.1,0-3.9,1.7-3.9,3.9S86.3,157,88.4,157z M88.9,167.5h54.2c2.1,0,3.9-1.7,3.9-3.9
                    c0-2.1-1.7-3.9-3.9-3.9H88.9c-2.1,0-3.9,1.7-3.9,3.9C85.1,165.8,86.8,167.5,88.9,167.5z M63.1,35.6V22c0-2.2,1.8-3.9,3.9-3.9h12.2
                    c0.6-6.7,9.6-12,20.7-12s20.1,5.3,20.7,12h12.2c2.2,0,3.9,1.8,3.9,3.9v13.6c0,2.2-1.8,3.9-3.9,3.9H67.1
                    C64.9,39.5,63.1,37.8,63.1,35.6z M91.3,18.6c0,2.9,3.9,5.2,8.7,5.2s8.7-2.3,8.7-5.2s-3.9-5.2-8.7-5.2S91.3,15.7,91.3,18.6z" />
</svg>