<svg version="1.1" xmlns="http://www.w3.org/2000/svg" x="0px" y="0px" viewBox="0 0 200 200" style="enable-background:new 0 0 200 200;" xml:space="preserve">
<linearGradient id="SVGID_2_" gradientUnits="userSpaceOnUse" x1="3.0642" y1="100" x2="196.9358" y2="100">
<stop offset="0" style="stop-color:#F53373" />
<stop offset="1" style="stop-color:#BF51E8" />
</linearGradient>
<path style="fill:url(#SVGID_2_);" d="M41.6,90.4c0-2.3,1.9-4.2,4.2-4.2h33.6c2.3,0,4.2,1.9,4.2,4.2s-1.9,4.2-4.2,4.2H45.9
                    C43.5,94.6,41.6,92.8,41.6,90.4z M84.8,111.6c0-2.3-1.9-4.2-4.2-4.2H7.3c-2.3,0-4.2,1.9-4.2,4.2c0,2.3,1.9,4.2,4.2,4.2h73.2
                    C82.9,115.9,84.8,114,84.8,111.6z M132.3,42.4v-14h7.3c2.3,0,4.2-1.9,4.2-4.2c0-2.3-1.9-4.2-4.2-4.2h-23c-2.3,0-4.2,1.9-4.2,4.2
                    c0,2.3,1.9,4.2,4.2,4.2h7.3v14c-20.2,1.2-38.6,11.1-50.9,27.5c-1.4,1.9-1,4.5,0.9,5.9c1.9,1.4,4.5,1,5.9-0.9
                    c11.5-15.4,29.2-24.2,48.4-24.2c33.3,0,60.4,27.1,60.4,60.4c0,33.3-27.1,60.4-60.4,60.4c-19.2,0-36.8-8.8-48.3-24.2
                    c-1.4-1.9-4.1-2.3-5.9-0.8c-1.9,1.4-2.3,4.1-0.8,5.9C86.1,170,106.2,180,128.1,180c38,0,68.9-30.9,68.9-68.9
                    C196.9,74.6,168.3,44.6,132.3,42.4z M125.3,122.7c0.1,0.1,0.2,0.2,0.3,0.3c0.1,0.1,0.2,0.1,0.4,0.2c0.1,0.1,0.3,0.2,0.4,0.2
                    c0.1,0.1,0.3,0.1,0.4,0.1c0.1,0,0.3,0.1,0.4,0.1c0.3,0.1,0.6,0.1,0.9,0.1c0.2,0,0.5,0,0.7-0.1c0.1,0,0.2-0.1,0.4-0.1
                    c0.1,0,0.2-0.1,0.4-0.1c0.2-0.1,0.3-0.1,0.4-0.2c0.1,0,0.2-0.1,0.2-0.1c0.2-0.1,0.3-0.2,0.5-0.3c0.1,0,0.1-0.1,0.2-0.1l0,0
                    c0,0,0,0,0,0c0,0,0,0,0,0L161,97c1.8-1.5,2-4.2,0.5-6c-1.5-1.8-4.2-2-6-0.5l-27,23.1l-12.3-14c-1.6-1.8-4.2-1.9-6-0.4
                    c-1.8,1.5-1.9,4.2-0.4,6l15.1,17.1C125,122.5,125.2,122.6,125.3,122.7z M83.7,132.3c0-2.3-1.9-4.2-4.2-4.2H30.2
                    c-2.3,0-4.2,1.9-4.2,4.2c0,2.3,1.9,4.2,4.2,4.2h49.3C81.8,136.6,83.7,134.7,83.7,132.3z" />
</svg>