<svg version="1.1" xmlns="http://www.w3.org/2000/svg" x="0px" y="0px" viewBox="0 0 200 200" style="enable-background:new 0 0 200 200;" xml:space="preserve">
<linearGradient id="SVGID_3_" gradientUnits="userSpaceOnUse" x1="4.0844" y1="100" x2="195.9156" y2="100">
<stop offset="0" style="stop-color:#F53373" />
<stop offset="1" style="stop-color:#BF51E8" />
</linearGradient>
<path style="fill:url(#SVGID_3_);" d="M163.1,18.3c-2.1-2.1-5.6-2.1-7.7,0L92.8,80.9c0,0,0,0,0,0c-0.2,0.2-0.3,0.4-0.5,0.6c0,0,0,0,0,0
                    c0,0.1-0.1,0.1-0.1,0.2c-0.1,0.2-0.2,0.3-0.2,0.5c0,0,0,0.1,0,0.1l-10,30.8c-0.4,1.3-0.1,2.6,0.9,3.6c0.7,0.7,1.6,1,2.5,1
                    c0.4,0,0.7-0.1,1.1-0.2l30.8-10c0,0,0,0,0.1,0c0.2-0.1,0.5-0.2,0.7-0.3c0,0,0,0,0,0c0,0,0,0,0.1,0c0.2-0.1,0.4-0.3,0.6-0.5
                    c0,0,0,0,0,0l62.6-62.6c2.1-2.1,2.1-5.6,0-7.7L163.1,18.3z M97.2,88.8l8.2,5.3l5.2,8.2l-19.9,6.5L97.2,88.8z M116.6,98.6l-5.8-9
                    c-0.3-0.4-0.6-0.8-1.1-1.1l-9-5.8l58.4-58.4L175,40.2L116.6,98.6z M193.1,18.2L181.2,6.4c0,0,0,0,0,0c-3.8-3.8-10.1-3.8-13.9,0
                    l-4.3,4.3c-1.4,1.4-1.4,3.6,0,5l20.8,20.8c0.7,0.7,1.6,1,2.5,1c0.9,0,1.8-0.3,2.5-1l4.3-4.3C196.9,28.3,196.9,22.1,193.1,18.2z
                    M188.1,27.1l-1.8,1.8l-15.8-15.8l1.8-1.8c1.1-1.1,2.8-1.1,3.9,0l11.9,11.9C189.2,24.3,189.2,26.1,188.1,27.1z M161.3,93.8v74.1
                    c0,15.8-12.8,28.6-28.6,28.6h-100c-15.8,0-28.6-12.8-28.6-28.6v-100c0-15.8,12.8-28.6,28.6-28.6H102c1.9,0,3.5,1.6,3.5,3.5
                    c0,1.9-1.6,3.5-3.5,3.5H32.7c-11.9,0-21.5,9.7-21.5,21.5v100c0,11.9,9.7,21.5,21.5,21.5h100c11.9,0,21.5-9.7,21.5-21.5V93.8
                    c0-1.9,1.6-3.5,3.5-3.5C159.7,90.3,161.3,91.9,161.3,93.8z" />
</svg>