<svg aria-hidden="true" style="position: absolute; width: 0; height: 0; overflow: hidden;" version="1.1" xmlns="http://www.w3.org/2000/svg" xmlns:xlink="http://www.w3.org/1999/xlink">
<defs>
<symbol id="icon-gender-man" viewBox="0 0 26 32">
<path d="M14.168 9.879c-0.011 0-0.020 0-0.029 0.001-0 0-0.001 0-0.001 0.001 0.010-0.001 0.020-0.001 0.030-0.001zM16.133 4.897c-0.21 0.105-0.458-0.048-0.458-0.283-0.002 0.010-0.002 0.010 0.045 0.162l0.388 0.132 0.162-0.142c0.015-0.030 0.015-0.030 0.025-0.060 0.007-0.027 0.008-0.035 0.009-0.038-0.002 0.016-0.002 0.017-0.005 0.047-0.002 0.021-0.005 0.047-0.009 0.078-0.056 0.047-0.11 0.082-0.156 0.105zM14.157 10.886c0.004-0.007 0.006-0.013 0.008-0.018-0 0-0.001 0.001-0.001 0.001-0.002 0.006-0.005 0.011-0.007 0.017zM4.544 11.334c-1.133 0.919-2.175 2.305-2.82 3.546-0.575 1.117-0.878 2.468-1.007 4.154-0.078 1.24-0.008 1.724 0.501 3.217 0.114 0.301 0.855 1.933 1.035 2.361 0.807 1.919 1.237 3.549 1.209 5.142-0.012 0.675-0.11 1.319-0.304 1.932-0.053 0.167-0.23 0.259-0.397 0.206s-0.259-0.23-0.206-0.397c0.174-0.552 0.264-1.137 0.275-1.752 0.026-1.487-0.384-3.040-1.16-4.886-0.173-0.411-0.921-2.058-1.047-2.392-0.538-1.579-0.62-2.146-0.537-3.475 0.136-1.767 0.456-3.194 1.077-4.401 0.683-1.313 1.776-2.767 2.977-3.741 0.218-0.187 0.421-0.414 0.606-0.671 0.039-0.064 0.055-0.087 0.091-0.134 0.020-0.027 0.045-0.064 0.074-0.112 0.309-0.412 1.060-2.217 1.090-2.601 0-0.111-0.001-0.163-0.004-0.224-0.004-0.067-0.010-0.122-0.020-0.166-0.244-0.643-0.293-1.465-0.198-2.315 0.025-0.299 0.045-0.482 0.089-0.742 0.065-0.382 0.159-0.75 0.292-1.098 0.166-0.433 0.384-0.815 0.662-1.131 0.474-0.553 1.11-0.963 1.829-1.202 0.676-0.285 1.461-0.397 2.43-0.397 1.348 0 3.399 0.657 4.55 1.963 0.667 0.727 0.976 1.208 1.013 1.851 0 0.128-0.002 0.192-0.011 0.277-0.014 0.128-0.044 0.243-0.108 0.37-0.030 0.050-0.063 0.096-0.098 0.138-0.045 0.054-0.091 0.1-0.136 0.137-0.004 0.033-0.008 0.072-0.012 0.115-0.018 0.17-0.041 0.394-0.064 0.614-0.052 0.509-0.091 0.922-0.091 0.954-0.053 0.252-0.137 0.432-0.239 0.585-0.040 0.061-0.068 0.091-0.17 0.2 0.030 0.314 0.048 0.526 0.038 0.74-0.001 0.022-0.002 0.358-0.002 1.006 0 0.508-0.327 0.853-0.837 0.8-0.062 0-0.107-0.005-0.188-0.018-0.072 0.094-0.076 0.118-0.060 0.198 0.006 0.197-0.048 0.324-0.143 0.404-0.001 0.092-0.014 0.159-0.076 0.245-0.044 0.062-0.103 0.107-0.174 0.143-0.072 0.059-0.085 0.071-0.098 0.084-0 0.148-0.001 0.193-0.005 0.252-0.014 0.21-0.060 0.371-0.187 0.498-0.078 0.078-0.166 0.147-0.406 0.327-0.333 0.193-0.588 0.228-0.857 0.173-0.189-0.021-0.484-0.138-0.91-0.339-0.048-0.023-0.097-0.046-0.147-0.071-0.12-0.059-0.242-0.119-0.374-0.186-0.011 0.038-0.022 0.079-0.035 0.123 0.011-0.038-0.053 0.185-0.068 0.239-0.024 0.086-0.043 0.156-0.066 0.244-0.013 0.047-0.017 0.068-0.025 0.119-0.012 0.072-0.021 0.118-0.033 0.163-0 0.067-0.002 0.109-0.005 0.161 0.066 0.074 0.131 0.128 0.19 0.182 0.245 0.082 0.476 0.202 0.775 0.387 0.054 0.034 0.235 0.147 0.232 0.145 0.643 0.402 1.185 0.876 1.64 1.445 0.371 0.454 0.694 1.001 0.887 1.549 0.464 0.169 1.579 0.646 2.123 1.025 0.228 0.159 0.444 0.332 0.647 0.523 0.864 0.821 1.38 1.636 1.669 2.518 0.257-0.602 0.673-1.246 1.308-2.118 0.028-0.039 0.028-0.039 0.056-0.077 0.168-0.231 0.255-0.351 0.35-0.485 0.1-0.176 0.544-0.862 0.705-1.077 0.303-0.595 0.52-1.234 0.634-1.812 0.048-0.243 0.075-0.46 0.078-0.625 0.002-0.071-0.001-0.128-0.007-0.166-0.163-0.158-0.367-0.743-0.45-1.16-0.007-0.043-0.108-0.272-0.251-0.563-0.104-0.209-0.178-0.353-0.251-0.494-0.044-0.085-0.078-0.149-0.098-0.186-0.036-0.068-0.046-0.147-0.029-0.222 0.009-0.039 0.026-0.101 0.051-0.18 0.042-0.131 0.091-0.262 0.151-0.386 0.136-0.286 0.301-0.5 0.522-0.611 0.095-0.048 0.209-0.044 0.301 0.010 0.255-0.59 0.734-0.862 1.432-0.621 1.64 0.566 2.167 0.807 2.349 1.261 0.072 0.18 0.109 0.457 0.127 0.829 0.012 0.255 0.014 0.523 0.010 0.767-0.001 0.029-0.004 0.081-0.010 0.156-0.006 0.027-0.019 0.081-0.036 0.157-0.029 0.129-0.061 0.276-0.095 0.44-0.099 0.469-0.197 0.976-0.289 1.502-0.119 0.682-0.219 1.344-0.291 1.968-0.045 0.385-0.078 0.749-0.1 1.087-0.106 1.964-0.24 3.473-0.524 5.46-0.203 1.423-1.573 4.639-2.099 5.165-0.052 0.052-0.379 0.398-0.466 0.474-0.234 0.204-0.468 0.287-0.946 0.353-0.029 0.006-0.068 0.019-0.128 0.041-0.034 0.012-0.185 0.069-0.222 0.083-0.051 0.019-0.097 0.035-0.141 0.050-0.303 0.103-0.504 0.141-0.688 0.080-1.768-0.575-3.886-1.406-4.716-1.89-0.351-0.211-0.693-0.436-0.989-0.646-0.175-0.125-0.332-0.245-0.471-0.359-0.135 0.26-0.324 0.523-0.554 0.788 0.16 0.431 0.134 0.997-0.010 1.474-0.074 0.297-0.214 0.599-0.4 0.877 0 0.105 0.001 0.169 0.004 0.243 0.005 0.122 0.014 0.226 0.029 0.318 0.077 0.499 0.020 0.974-0.159 1.555-0.051 0.167-0.228 0.261-0.395 0.209s-0.261-0.228-0.209-0.395c0.153-0.497 0.199-0.88 0.139-1.269-0.020-0.118-0.031-0.246-0.037-0.393-0.004-0.106-0.005-0.19-0.005-0.366 0-0.066 0.021-0.13 0.059-0.184 0.171-0.24 0.298-0.502 0.364-0.763 0.123-0.411 0.132-0.907-0.012-1.172-0.025-0.046-0.039-0.099-0.039-0.151 0-0.121 0.033-0.202 0.093-0.261 0.057-0.087 0.075-0.113 0.097-0.133 0.301-0.344 0.521-0.69 0.603-0.991 0.064-0.234 0.357-0.312 0.529-0.14 0.027 0.027 0.086 0.082 0.178 0.16 0.156 0.134 0.344 0.281 0.564 0.439 0.282 0.201 0.609 0.417 0.943 0.617 0.776 0.453 2.862 1.271 4.592 1.834 0.002 0.001 0.121-0.022 0.286-0.078 0.038-0.013 0.079-0.028 0.126-0.045 0.035-0.013 0.186-0.070 0.224-0.084 0.090-0.033 0.151-0.053 0.192-0.060 0.432-0.063 0.56-0.109 0.684-0.217 0.059-0.052 0.362-0.372 0.434-0.444 0.418-0.418 1.734-3.509 1.92-4.807 0.281-1.966 0.413-3.458 0.518-5.408 0.022-0.353 0.057-0.728 0.103-1.123 0.074-0.637 0.175-1.311 0.296-2.004 0.093-0.533 0.193-1.047 0.293-1.523 0.035-0.167 0.068-0.317 0.097-0.448 0.013-0.056 0.023-0.101 0.030-0.132 0.005-0.287 0.004-0.542-0.008-0.781-0.015-0.302-0.045-0.532-0.082-0.624-0.072-0.179-0.644-0.441-1.968-0.898-0.35-0.121-0.482-0.046-0.567 0.198-0.043 0.123-0.057 0.258-0.056 0.35 0.008 0.248-0.261 0.407-0.476 0.282l-0.254-0.148c-0.041 0.054-0.085 0.127-0.126 0.214-0.046 0.096-0.086 0.201-0.119 0.306 0.005 0.049 0.018 0.075 0.033 0.104 0.075 0.144 0.15 0.291 0.221 0.432 0.219 0.445 0.322 0.679 0.342 0.803 0.056 0.282 0.233 0.791 0.346 0.906 0.307 0.384-0.012 1.995-0.673 3.282-0.015 0.029-0.034 0.056-0.058 0.079-0.035 0.035-0.612 0.925-0.648 0.997-0.126 0.184-0.214 0.307-0.39 0.548-0.028 0.039-0.028 0.039-0.056 0.077-1.094 1.504-1.482 2.252-1.53 3.304-0.018 0.396-0.601 0.405-0.631 0.010-0.105-1.37-0.552-2.476-1.761-3.626-0.179-0.168-0.371-0.322-0.574-0.464-0.427-0.297-0.882-0.526-1.361-0.707-0.236-0.089-0.743-0.246-0.781-0.265-0.079-0.039-0.137-0.109-0.162-0.194-0.154-0.525-0.468-1.079-0.837-1.529-0.411-0.514-0.899-0.941-1.483-1.306 0.001 0.001-0.177-0.111-0.229-0.143-0.286-0.177-0.49-0.28-0.699-0.343-0.050-0.015-0.096-0.042-0.133-0.079-0.083-0.083-0.206-0.18-0.324-0.258s-0.17-0.228-0.125-0.363c0.007-0.022 0.014-0.059 0.017-0.109 0.003-0.044 0.004-0.083 0.004-0.164 0-0.034 0.005-0.068 0.016-0.1 0.009-0.026 0.014-0.052 0.025-0.119s0.017-0.101 0.029-0.145c0.032-0.119 0.052-0.194 0.078-0.286 0.016-0.056 0.080-0.281 0.069-0.241 0.059-0.208 0.095-0.343 0.126-0.479 0.045-0.201 0.266-0.306 0.45-0.214 0.034 0.017 0.25 0.128 0.281 0.144 0.158 0.081 0.298 0.151 0.436 0.218 0.048 0.024 0.096 0.046 0.141 0.068 0.352 0.167 0.619 0.272 0.736 0.287 0.146 0.029 0.244 0.018 0.397-0.067 0.195-0.146 0.277-0.211 0.322-0.256 0.006-0.133 0.007-0.169 0.007-0.245 0-0.135 0-0.186 0.015-0.234 0.004-0.035 0.013-0.065 0.035-0.109 0.027-0.053 0.036-0.064 0.092-0.119 0.037-0.037 0.066-0.065 0.101-0.097 0.042-0.038 0.060-0.054 0.077-0.068-0.010-0.218 0.060-0.324 0.162-0.376 0.001-0.18 0.063-0.335 0.189-0.504 0.045-0.165 0.173-0.275 0.327-0.275 0.103 0 0.156 0.006 0.241 0.020 0.082 0.014 0.108 0.017 0.163 0.018 0.145 0.015 0.173-0.015 0.173-0.169v-0.967c0.011-0.247-0.009-0.422-0.095-0.681-0.022-0.065-0.022-0.135 0-0.2 0.036-0.107 0.093-0.183 0.203-0.301 0.098-0.105 0.12-0.128 0.131-0.146 0.058-0.087 0.108-0.191 0.135-0.284 0.009-0.132 0.042-0.471 0.092-0.968 0.022-0.22 0.046-0.445 0.064-0.616 0.009-0.083 0.016-0.151 0.021-0.196 0.010-0.082 0.010-0.082 0.019-0.122 0.010-0.029 0.010-0.031 0.166-0.182 0.007-0.014 0.044-0.042 0.085-0.090 0.046-0.069 0.057-0.113 0.064-0.173 0.006-0.054 0.007-0.102 0.008-0.188-0.025-0.428-0.278-0.82-0.852-1.447-0.571-0.648-1.385-1.119-2.338-1.424-0.668-0.214-1.375-0.329-1.741-0.329-0.892 0-1.599 0.101-2.207 0.356-0.636 0.212-1.175 0.56-1.574 1.025-0.227 0.258-0.408 0.575-0.548 0.942-0.207 0.54-0.287 1.016-0.342 1.675-0.086 0.775-0.041 1.512 0.166 2.046 0.035 0.128 0.047 0.227 0.054 0.339 0.004 0.077 0.005 0.137 0.004 0.284-0.041 0.529-0.816 2.4-1.2 2.934-0.022 0.041-0.046 0.074-0.091 0.134-0.287 0.41-0.528 0.68-0.798 0.912zM14.219 10.797c-0.012 0.004-0.024 0.006-0.037 0.008 0.013-0.002 0.025-0.005 0.037-0.008z"></path>
</symbol>
<symbol id="icon-gender-women" viewBox="0 0 22 32">
<path d="M15.869 31.552c0.075 0.149 0 0.336-0.149 0.411s-0.336 0-0.411-0.149c-0.112-0.224-0.261-0.485-0.411-0.672-0.112-0.187-0.037-0.448 0.187-0.485 0.037 0 1.307-0.821 2.315-1.494 1.382-0.933 2.427-1.718 2.651-1.979 0.037-0.075 0.187-0.224 0.187-0.187 0.075-0.112 0.149-0.187 0.261-0.373 0.112-0.149 0.149-0.187 0.187-0.224l0.112-0.112c0.037-0.075 0.075-0.112 0.112-0.149 0.112-0.149-0.112-1.083-0.523-2.464-0.037-0.075-0.037-0.187-0.075-0.299l-0.112-0.336c-0.037-0.187-0.075-0.261-0.112-0.336-0.075-0.261-0.149-0.448-0.187-0.635-0.149-0.448-0.224-0.747-0.261-0.971-0.037-0.485-0.112-0.933-0.224-1.382l-0.112-0.448c-0.075-0.261-0.187-0.523-0.299-0.821-0.037-0.149-0.299-0.821-0.373-0.971-0.112-0.336-0.187-0.56-0.224-0.747 0-0.597-0.075-1.27-0.149-1.643-0.075-0.336-0.336-0.784-0.635-1.158-0.075-0.112-0.075-0.112-0.112-0.149s-0.075-0.112-0.187-0.187c-0.037-0.037-0.224-0.224-0.224-0.261-0.112-0.112-0.187-0.187-0.261-0.299l-0.075-0.075c-0.299-0.299-0.485-0.56-0.635-0.709-0.56-0.709-0.896-1.531-1.12-2.614-0.149-0.709-0.187-1.344-0.037-1.904 0-0.037 0.037-0.075 0.075-0.112 0.187-0.224 0.373-0.448 0.597-0.747 0.037-0.037 0.448-0.597 0.56-0.709 0.037-0.075 0.112-0.149 0.187-0.299 0.075-0.075 0.075-0.112 0.112-0.149s0.037-0.075 0.075-0.112c0.149-0.187 0.261-0.448 0.448-0.784 0.037-0.373 0.635-0.373 0.635 0.037 0 0.261-0.037 0.523-0.075 0.784 0 0.112-0.037 0.224-0.075 0.373-0.037 0.224-0.037 0.261-0.075 0.373-0.075 0.261-0.112 0.485-0.224 0.934 0 0.149-0.037 0.187-0.037 0.261-0.261 1.008-0.373 1.606-0.373 2.24 0 1.232 0.56 2.128 1.419 2.763 0.149 0.112 0.336 0.224 0.485 0.299-0.485-0.934-0.485-2.054-0.149-3.585 0.037-0.224 0.075-0.411 0.187-0.784 0.261-1.083 0.336-1.494 0.373-2.016 0.075-1.008-0.112-2.166-0.448-3.137-0.373-0.933-0.821-1.643-1.382-1.942-0.037 0-0.037-0.037-0.075-0.037l-0.112-0.112c-0.299-0.224-0.672-0.299-0.859-0.112l-0.075 0.075c-0.037 0.112-0.149 0.187-0.299 0.187-0.224 0-0.299-0.037-0.784-0.299l-0.299-0.149c-0.187-0.075-0.373-0.112-0.747-0.187-0.224-0.037-0.373-0.075-0.523-0.112-0.485-0.037-0.971 0-1.419 0.112-0.037 0-0.075 0-0.112 0.037-0.037 0-0.075 0-0.112 0.037-0.112 0.037-0.187 0.037-0.261 0.075-0.261 0.037-0.411 0.075-0.523 0.149-0.149 0.037-0.299 0.112-0.485 0.187-0.261 0.149-0.523 0.336-0.747 0.56-0.075 0.075-0.112 0.149-0.187 0.299-0.037 0.075-0.075 0.112-0.075 0.149-0.037 0.112-0.075 0.187-0.075 0.224v0.299c0.075 0.112 0.037 0.261-0.075 0.373-0.037 0.037-0.037 0.075-0.037 0.075-0.037 0.075-0.075 0.112-0.075 0.187-0.037 0.075-0.075 0.112-0.112 0.149-0.075 0.149-0.112 0.261-0.187 0.373-0.037 0.112-0.112 0.187-0.224 0.187h0.075c-0.037 0.112-0.075 0.149-0.075 0.187s-0.037 0.075-0.037 0.075-0.037 0.075-0.037 0.112-0.037 0.075-0.037 0.112-0.037 0.075-0.037 0.112c-0.037 0.075-0.037 0.299 0.037 0.523v0.224c0 0.075-0.037 0.112-0.075 0.187-0.149 0.224-0.299 0.373-0.485 0.523-0.075 0.075-0.299 0.224-0.261 0.224l-0.149 0.149c0.037 0.075 0.075 0.112 0.112 0.149 0.075 0.037 0.112 0.037 0.112 0.075 0.075 0.075 0.112 0.075 0.149 0.112l0.075 0.075c0.037 0.037 0.075 0.075 0.112 0.149 0.037 0.037 0.037 0.075 0.075 0.112s0.037 0.075 0.037 0.149 0 0.187-0.037 0.224l-0.112 0.224c0.037 0.075 0.075 0.149 0.075 0.224 0-0.075-0.037-0.149-0.075-0.187l0.075 0.075c0.149 0.149 0.149 0.373 0.037 0.485l0.112 0.112c0.187 0.224 0.187 0.373 0.112 0.709-0.037 0.187-0.037 0.224 0 0.224 0.037 0.037 0.075 0.037 0.075 0.075 0 0 0.075 0.037 0.187 0.112 0 0 0.037 0.037 0.112 0.037h0.56c0.112-0.037 0.187-0.075 0.261-0.075 0.112 0 0.112-0.037 0.187-0.037h0.075c0.037-0.037 0.112-0.037 0.149-0.037 0.037-0.037 0.075-0.037 0.149-0.037s0.112-0.037 0.224-0.037c0.075 0 0.112-0.037 0.187-0.037h0.075c0.149 0 0.336 0.037 0.56 0.075 0.075 0.037 0.149 0.075 0.224 0.149 0.261 0.56 0.56 1.195 0.709 1.68 0 0.075 0.037 0.112 0 0.187-0.075 0.261-0.187 0.411-0.373 0.597l-0.299 0.299c-0.149 0.149-0.261 0.261-0.523 0.448-0.224 0.187-0.336 0.261-0.448 0.373-0.037 0.037-0.112 0.112-0.112 0.187-0.075 0.149-0.187 0.224-0.336 0.299-0.112 0.075-0.224 0.112-0.411 0.224l-0.448 0.224c-0.187 0.075-0.336 0.187-0.56 0.299-0.075 0.037-0.149 0.075-0.261 0.149s-0.187 0.112-0.261 0.149c-0.336 0.187-0.597 0.336-0.859 0.485-0.336 0.187-0.635 0.373-0.933 0.597-0.709 0.485-1.344 1.419-1.494 2.128-0.149 0.672 0.112 1.382 0.56 1.643 0.112 0.075 0.149 0.149 0.149 0.261v0.261c0 0.112-0.037 0.187-0.112 0.261-0.075 0.037-0.075 0.075-0.187 0.149-0.224 0.149-0.411 0.336-0.933 0.933-0.187 0.187-0.523 0.112-0.56-0.149-0.037-0.149-0.187-0.523-0.672-1.494-0.075-0.187-0.112-0.261-0.187-0.373-0.149-0.448-0.336-0.821-0.523-1.344-0.261-0.747-0.523-1.531-0.672-2.352-0.112-0.672 0-0.971 0.336-1.12 0.075-0.075 0.261-0.336 0.373-0.56 0.037-0.075 0.149-0.224 0.336-0.448 0.075-0.112 0.149-0.224 0.224-0.299v-0.261s-0.037 0-0.112 0.037c-0.224 0.112-0.485-0.112-0.411-0.373v-0.261c0-0.112-0.037-0.112-0.224-0.112-0.037 0-0.373 0.037-0.448 0.075-0.597 0.075-0.896 0.187-0.933 0.224s-0.075 0.187-0.149 0.411c-0.037 0.112-0.075 0.224-0.075 0.373 0 0.075-0.037 0.149-0.037 0.149v0.112c0 0.112-0.037 0.224-0.037 0.336-0.037 0.224-0.037 0.485-0.037 0.672 0 0.299 0 0.56 0.037 0.709 0.037 0.037 0.075 0.112 0.075 0.187 0.187 1.979 0.56 4.331 1.008 6.46 0.187 0.933 0.411 1.792 0.56 2.39 0.075 0.299 0.149 0.523 0.224 0.672 0.037 0.037 0.037 0.112 0.075 0.149 0.187 0.037 0.635-0.037 0.859-0.112 0.075-0.037 0.448-0.224 0.933-0.485 0.187-0.112 0.635-0.373 0.672-0.373 0.112-0.037 0.149-0.112 0.224-0.112 0.037 0 0.037-0.037 0.075-0.037 0.037-0.037 0.037-0.037 0.187-0.037s0.299 0.112 0.299 0.261c0 0.037 0 0.149 0.037 0.261 0 0.037 0.037 0.933 0.037 1.344 0.037 0.709 0.075 1.419 0.149 2.128 0.075 1.083 0.411 2.128 0.971 3.435 0.075 0.149 0 0.336-0.149 0.411s-0.336 0-0.411-0.149c-0.597-1.344-0.933-2.464-1.045-3.622-0.075-0.709-0.112-1.419-0.149-2.166 0-0.261-0.037-0.747-0.037-1.046-0.149 0.075-0.411 0.224-0.485 0.299-0.709 0.224-1.008 0.373-1.158 0.448-0.411 0.149-1.083 0.261-1.382 0.112-0.56-0.261-1.755-5.937-2.166-10.044-0.037-0.037-0.037-0.075-0.037-0.112-0.075-0.224-0.075-0.56-0.075-1.008 0-0.224 0.037-0.485 0.037-0.709 0-0.112 0.037-0.224 0.037-0.336v-0.149c0-0.037 0.037-0.112 0.037-0.187 0.037-0.149 0.075-0.261 0.075-0.411 0.075-0.261 0.149-0.485 0.224-0.597 0.187-0.261 0.523-0.373 1.382-0.485 0.075 0 0.411-0.075 0.448-0.075 0.523-0.075 0.859 0.187 0.933 0.597 0.075 0 0.187 0 0.261 0.075 0.149 0.112 0.224 0.299 0.299 0.523 0.037 0.187 0.075 0.373 0.075 0.485 0 0.075-0.037 0.149-0.075 0.187s-0.037 0.075-0.112 0.112-0.149 0.187-0.224 0.261-0.261 0.336-0.261 0.373c-0.149 0.336-0.373 0.672-0.56 0.784l-0.075 0.037c-0.075 0.075-0.075 0.112 0 0.485 0.149 0.747 0.373 1.494 0.672 2.24 0.187 0.485 0.336 0.859 0.523 1.27 0.037 0.112 0.075 0.187 0.187 0.373 0.261 0.523 0.411 0.859 0.523 1.12 0.299-0.336 0.485-0.485 0.672-0.597-0.56-0.485-0.859-1.344-0.747-2.203 0.149-0.933 0.896-2.016 1.755-2.576 0.299-0.224 0.635-0.411 0.971-0.635 0.261-0.149 0.523-0.299 0.896-0.485 0.075-0.037 0.149-0.075 0.261-0.149 0.149-0.075 0.224-0.112 0.261-0.149 0.224-0.112 0.373-0.187 0.56-0.299 0.112-0.075 0.224-0.112 0.411-0.224l0.448-0.224c0.112-0.112 0.187-0.261 0.299-0.336 0.149-0.149 0.261-0.261 0.523-0.448 0.224-0.187 0.336-0.261 0.448-0.373 0.075-0.112 0.373-0.411 0.336-0.336 0.075-0.075 0.149-0.149 0.187-0.261-0.112-0.373-0.336-0.896-0.56-1.344-0.112-0.037-0.187-0.037-0.261-0.037h-0.112c-0.075 0-0.112 0.037-0.187 0.037s-0.112 0.037-0.187 0.037-0.075 0-0.075 0.037c-0.037 0-0.075 0.037-0.112 0.037-0.075 0.037-0.112 0.037-0.149 0.037s-0.112 0.037-0.187 0.037h-0.075c-0.037 0.037-0.075 0.037-0.112 0.037h-0.784c-0.075 0-0.112-0.037-0.149-0.037l-0.149-0.075c-0.187-0.075-0.299-0.149-0.373-0.261-0.261-0.187-0.261-0.411-0.224-0.784 0.037-0.149 0.037-0.187 0.037-0.224-0.075-0.037-0.149-0.112-0.224-0.187-0.075-0.149-0.112-0.336-0.075-0.485-0.075-0.187-0.112-0.299-0.112-0.448 0-0.112 0.037-0.187 0.075-0.261l0.075-0.149-0.075-0.075c-0.075-0.037-0.075-0.075-0.112-0.075-0.112-0.075-0.187-0.112-0.261-0.187-0.149-0.149-0.224-0.299-0.224-0.523 0-0.187 0.075-0.373 0.224-0.485 0.037-0.037 0.075-0.112 0.112-0.112 0.037-0.037 0.261-0.187 0.299-0.261 0.149-0.112 0.261-0.224 0.336-0.336-0.075-0.336-0.112-0.672 0-0.896 0-0.037 0.037-0.112 0.037-0.149 0.037-0.037 0.037-0.075 0.075-0.075-0.037 0.037-0.037 0.075-0.075 0.112 0.037-0.075 0.037-0.149 0.112-0.261-0.037-0.112 0-0.112 0-0.112 0.037-0.149 0.112-0.299 0.261-0.411 0.037-0.112 0.112-0.224 0.187-0.411 0.037-0.037 0.037-0.075 0.075-0.112s0.037-0.075 0.075-0.112c0-0.037 0.037-0.037 0.037-0.075v-0.336c0-0.112 0.037-0.261 0.075-0.411 0.037-0.112 0.037-0.149 0.075-0.187l0.037-0.075c0.112-0.224 0.187-0.373 0.336-0.485 0.485-0.485 1.046-0.784 1.456-0.896 0.187-0.075 0.373-0.112 0.635-0.149 0.075 0 0.149-0.037 0.261-0.037 0.075 0 0.075-0.037 0.112-0.037s0.112-0.037 0.112-0.037c0.56-0.149 1.12-0.187 1.68-0.149 0.187 0.037 0.299 0.075 0.56 0.112 0.448 0.075 0.597 0.112 0.859 0.224 0.112 0.037 0.224 0.112 0.411 0.187 0.149 0.075 0.261 0.149 0.299 0.187 0.037-0.037 0.075-0.075 0.112-0.075 0.485-0.373 1.158-0.224 1.643 0.187l0.075 0.075c0.709 0.411 1.232 1.195 1.643 2.24 0.411 1.083 0.597 2.315 0.523 3.398-0.037 0.56-0.112 1.008-0.373 2.128-0.075 0.373-0.112 0.56-0.187 0.784-0.373 1.867-0.261 2.95 0.635 3.883 0.224 0.224 0 0.597-0.299 0.523-0.112-0.037-0.299-0.075-0.523-0.149-0.373-0.149-0.784-0.336-1.158-0.597-0.149-0.112-0.261-0.187-0.373-0.299l0.112 0.112s0.187 0.224 0.224 0.261c0.187 0.187 0.261 0.261 0.261 0.299 0.373 0.448 0.635 0.971 0.747 1.382 0.075 0.411 0.149 1.158 0.149 1.718 0.037 0.112 0.075 0.299 0.187 0.597 0.075 0.149 0.299 0.821 0.373 0.971 0.112 0.336 0.224 0.597 0.299 0.859 0.037 0.149 0.112 0.336 0.149 0.485 0.112 0.448 0.187 0.971 0.224 1.456 0.037 0.299 0 0.112 0.635 2.203 0.037 0.112 0.075 0.187 0.075 0.299 0.56 1.792 0.709 2.576 0.485 2.95-0.037 0.075-0.075 0.112-0.112 0.149-0.075 0.112-0.149 0.187-0.187 0.261l-0.149 0.149c-0.112 0.187-0.187 0.299-0.261 0.411 0 0-0.149 0.149-0.187 0.224-0.411 0.523-3.734 2.838-4.891 3.51 0.112 0.149 0.187 0.299 0.261 0.448zM16.915 12.21c0.075 0.112 0.187 0.224 0.336 0.373l0.075 0.075c0.037 0.075 0.112 0.112 0.187 0.187-0.261-0.224-0.448-0.411-0.597-0.635zM16.168 9.82c0-0.709 0.112-1.344 0.411-2.427 0-0.075 0.037-0.112 0.075-0.224 0.112-0.373 0.149-0.597 0.187-0.784-0.037 0.037-0.037 0.075-0.075 0.149-0.112 0.149-0.523 0.709-0.56 0.747-0.224 0.299-0.373 0.485-0.56 0.709-0.112 0.411-0.075 0.971 0.075 1.568 0.187 0.971 0.523 1.755 1.008 2.352 0.075 0.075 0.149 0.187 0.261 0.299-0.56-0.635-0.821-1.419-0.821-2.39zM8.663 3.137v0zM8.849 2.913v0zM7.879 8.887v0zM5.638 24.719v0 0zM8.252 8.327v0zM7.617 6.534c-0.037 0-0.037 0 0 0-0.037 0 0 0 0 0zM8.775 4.033v0zM8.999 2.054c0-0.037 0 0 0.037 0.075 0.299 0.149 0.299 0.149 0.448 0.075l0.112-0.112c-0.187 0.261-0.523 0.187-0.597-0.037zM8.999 2.054v0z"></path>
<path d="M14.674 20.574c-0.037 0.037-0.149 0.149-0.149 0.187-0.075 0.075-0.112 0.112-0.149 0.187-0.224 0.261-0.448 0.523-0.896 1.083-0.411 0.523-0.56 0.747-0.784 0.971-0.224 0.261-0.336 0.411-0.411 0.56-0.261 0.448-0.411 1.867-0.261 3.099 0.075 0.336 0.859 1.382 1.456 1.792 0.224 0.187 0.448 0.373 0.672 0.597 0.261-0.224 0.523-0.523 0.859-0.896 0.112-0.112 0.224-0.261 0.336-0.411 0.075-0.075 0.299-0.373 0.373-0.411 0.896-1.083 1.494-1.68 2.128-2.128-0.112-0.336-0.299-0.635-0.56-1.046-0.112-0.187-0.597-0.784-0.597-0.784-0.261-0.373-0.448-0.635-0.635-0.971-0.485-0.896-0.859-1.568-1.083-2.091v-0.037c-0.112 0.075-0.187 0.187-0.299 0.299zM12.21 22.553c0.224-0.224 0.373-0.448 0.747-0.971 0.448-0.597 0.672-0.859 0.934-1.12 0.037-0.037 0.112-0.112 0.149-0.187 0.037-0.037 0.149-0.149 0.149-0.187 0.261-0.299 0.411-0.485 0.523-0.672 0.149-0.261 0.485-0.224 0.597 0.075 0.037 0.075 0.075 0.224 0.224 0.523 0.224 0.485 0.56 1.158 1.046 2.054 0.149 0.299 0.336 0.56 0.597 0.896 0 0 0.448 0.635 0.597 0.821 0.373 0.56 0.597 0.971 0.709 1.494 0.037 0.149-0.037 0.261-0.149 0.336-0.672 0.411-1.232 0.971-2.203 2.091-0.037 0.037-0.299 0.336-0.373 0.411-0.149 0.149-0.261 0.299-0.373 0.411-0.448 0.523-0.821 0.896-1.158 1.158-0.149 0.112-0.336 0.075-0.448-0.037-0.261-0.299-0.523-0.56-0.747-0.747-0.709-0.448-1.606-1.643-1.718-2.203-0.149-1.344 0-2.913 0.336-3.473 0.187-0.187 0.299-0.336 0.56-0.672z"></path>
</symbol>
<symbol id="icon-keto-icon" viewBox="0 0 61 32">
<path d="M25.946 14.962v3.632c0 0.259-0.13 0.476-0.259 0.735-0.259 0.259-0.476 0.476-0.865 0.476-0.476 0-0.865-0.259-1.081-0.605-0.259-0.259-0.346-0.605-0.346-0.951 0-1.341 0-3.287 0.13-5.795s0.13-4.497 0.13-5.795c0-0.346 0.13-0.605 0.346-0.865 0.259-0.259 0.476-0.346 0.865-0.346s0.605 0.13 0.865 0.346c0.259 0.259 0.346 0.476 0.346 0.865 0 0.476 0 1.211-0.13 2.076-0.13 0.951-0.13 1.687-0.13 2.076 0.346-0.346 1.946-1.946 4.497-4.843 0.259-0.259 0.605-0.476 0.951-0.476s0.605 0.13 0.865 0.346c0.259 0.259 0.346 0.476 0.346 0.865s-0.735 1.341-2.076 2.768c-0.951 1.081-2.076 2.162-3.287 3.287 0.605 0.605 1.211 1.211 1.946 1.816 0.735 0.735 1.47 1.211 1.946 1.686 0.259 0.259 0.605 0.346 0.951 0.476 0.605 0.259 0.951 0.605 0.951 1.081 0 0.259-0.13 0.476-0.259 0.735-0.259 0.346-0.476 0.476-0.865 0.476-0.865 0-1.946-0.476-3.287-1.557-0.13-0.216-1.124-1.081-2.551-2.508z"></path>
<path d="M38.4 11.935c-0.476 0-0.951 0.13-1.341 0.476-0.346 0.346-0.735 0.865-0.951 1.557 0.605-0.259 1.341-0.605 1.946-0.865 0.735-0.346 1.47-0.735 1.816-0.951-0.389-0.216-0.865-0.216-1.47-0.216zM38.659 19.2c-1.341 0-2.551-0.346-3.373-0.951-0.951-0.735-1.47-1.686-1.47-3.027 0-1.47 0.346-2.681 1.211-3.762s2.076-1.687 3.503-1.687c0.951 0 1.816 0.13 2.551 0.476 0.865 0.476 1.341 1.081 1.341 1.946 0 0.605-0.346 1.211-1.081 1.687-0.346 0.259-0.951 0.605-1.946 0.951l-2.897 1.341c0.259 0.259 0.605 0.476 0.951 0.735 0.346 0.13 0.865 0.259 1.341 0.259 0.735 0 1.47-0.13 1.946-0.476 0.476-0.259 0.865-0.476 1.211-0.476 0.605 0 0.865 0.259 0.865 0.865s-0.476 1.211-1.47 1.557c-0.865 0.432-1.73 0.562-2.681 0.562z"></path>
<path d="M50.249 11.805h-0.951c-0.259 0-0.476 0-0.865 0.13 0.13 2.292 0.13 3.892 0.13 4.584v0.822c0 1.341-0.346 1.946-1.211 1.946-0.346 0-0.605-0.13-0.865-0.259-0.259-0.259-0.346-0.476-0.346-0.735v-1.903c0-0.735 0-2.162-0.13-4.497-0.346 0-0.865-0.13-1.557-0.13-0.735-0.13-1.081-0.476-1.081-1.081 0-0.346 0.13-0.605 0.346-0.865 0.259-0.259 0.476-0.346 0.865-0.346 0.259 0 0.735 0 1.47 0.13v-1.816c0-0.346 0.13-0.605 0.346-0.865 0.259-0.259 0.476-0.346 0.865-0.346 0.865 0 1.341 0.735 1.341 2.162v0.778c0.346 0 0.605-0.13 0.865-0.13 0.605 0 1.081 0 1.341 0.13 0.476 0.13 0.735 0.476 0.735 1.081 0 0.346-0.13 0.605-0.346 0.865-0.216 0.216-0.562 0.346-0.951 0.346z"></path>
<path d="M56.692 12.151c-0.735 0-1.211 0.346-1.687 0.951-0.346 0.605-0.476 1.211-0.476 1.946s0.259 1.211 0.605 1.557c0.346 0.259 0.735 0.476 1.081 0.476 0.476 0 0.951-0.13 1.341-0.476 0.346-0.346 0.605-0.951 0.735-1.557-0.173-2.032-0.649-2.897-1.6-2.897zM56.087 19.287c-1.081 0-1.946-0.346-2.768-1.081-0.865-0.865-1.341-1.816-1.341-3.287 0-1.341 0.346-2.422 1.081-3.373 0.865-1.211 2.076-1.816 3.632-1.816 1.211 0 2.076 0.476 2.768 1.341 0.605 0.865 0.951 1.816 0.951 3.157s-0.346 2.551-1.081 3.373c-0.822 1.211-1.816 1.686-3.243 1.686z"></path>
<path d="M27.978 24.389c-0.346-0.259-1.341-0.735-2.681-1.211v6.4c0.13 0.13 0.346 0.259 0.605 0.259s0.476 0.13 0.735 0.13c0.951 0 1.557-0.13 2.076-0.346 0.346-0.259 0.735-0.605 0.951-0.951 0.259-0.476 0.346-0.865 0.346-1.341-0.087-1.254-0.692-2.076-2.032-2.941zM24.346 31.049c-0.259 0-0.476-0.13-0.605-0.259s-0.259-0.346-0.259-0.605c0-0.476 0-1.081 0.13-1.946 0-0.865 0.13-1.557 0.13-1.946v-4.324c0-0.259 0.13-0.476 0.346-0.735 0.259-0.259 0.476-0.346 0.735-0.346 0.13 0 0.476 0.13 1.081 0.346 0.735 0.346 1.081 0.476 1.211 0.476 1.211 0.346 2.292 1.081 3.287 1.946 1.081 0.951 1.557 2.162 1.557 3.373 0 0.735-0.259 1.47-0.605 2.162-0.346 0.735-0.865 1.211-1.557 1.686-0.735 0.476-1.686 0.735-3.027 0.735-0.346 0-0.735 0-1.081-0.13-0.605-0.087-0.951-0.173-1.341-0.432z"></path>
<path d="M34.292 23.178c-0.259 0-0.476-0.13-0.735-0.259-0.259-0.259-0.346-0.346-0.346-0.735s0.13-0.476 0.346-0.735c0.259-0.259 0.476-0.259 0.735-0.259s0.476 0.13 0.735 0.259c0.259 0.259 0.259 0.346 0.259 0.735s-0.173 0.519-0.259 0.735c-0.259 0.13-0.519 0.259-0.735 0.259zM34.897 28.022v2.422c0 0.259-0.13 0.476-0.259 0.605s-0.346 0.259-0.605 0.259-0.476-0.13-0.605-0.259-0.259-0.346-0.259-0.605v-2.422c0-0.346 0-0.865 0.13-1.47 0-0.605 0.13-1.081 0.13-1.47 0-0.259 0.13-0.476 0.259-0.605s0.346-0.259 0.605-0.259 0.476 0.13 0.605 0.259 0.259 0.346 0.259 0.605c0 0.346 0 0.865-0.13 1.47-0.13 0.519-0.13 0.995-0.13 1.47z"></path>
<path d="M39.611 25.859c-0.346 0-0.735 0.13-1.081 0.346-0.259 0.259-0.476 0.735-0.735 1.211 0.476-0.259 0.951-0.346 1.47-0.605 0.605-0.259 1.081-0.476 1.47-0.735-0.259-0.216-0.649-0.216-1.124-0.216zM39.87 31.308c-1.081 0-1.946-0.259-2.551-0.735-0.735-0.605-1.081-1.341-1.081-2.292 0-1.081 0.259-2.076 0.865-2.768 0.605-0.865 1.47-1.211 2.551-1.211 0.735 0 1.341 0.13 1.946 0.346 0.605 0.346 0.951 0.865 0.951 1.47 0 0.476-0.259 0.865-0.865 1.211-0.259 0.13-0.735 0.346-1.47 0.735l-2.162 0.908c0.259 0.259 0.476 0.346 0.735 0.476s0.605 0.13 0.951 0.13c0.605 0 1.081-0.13 1.47-0.346 0.346-0.259 0.605-0.346 0.865-0.346 0.476 0 0.735 0.259 0.735 0.605 0 0.476-0.346 0.865-1.081 1.211-0.562 0.476-1.254 0.605-1.859 0.605z"></path>
<path d="M48.562 25.859h-1.297c0.13 1.686 0.13 2.897 0.13 3.373v0.692c0 0.951-0.346 1.47-0.951 1.47-0.259 0-0.476-0.13-0.605-0.259-0.259-0.13-0.259-0.346-0.259-0.605v-1.427c0-0.476 0-1.686-0.13-3.373-0.259 0-0.735 0-1.211-0.13-0.476 0-0.865-0.346-0.865-0.865 0-0.259 0.13-0.476 0.259-0.605s0.346-0.259 0.605-0.259c0.13 0 0.476 0 1.081 0.13v-1.341c0-0.259 0.13-0.476 0.259-0.605s0.346-0.259 0.605-0.259c0.605 0 0.951 0.476 0.951 1.557v0.476h0.605c0.476 0 0.865 0 0.951 0.13 0.346 0.13 0.476 0.346 0.476 0.865 0 0.259-0.13 0.476-0.259 0.605 0.13 0.303-0.087 0.432-0.346 0.432z"></path>
<path d="M8.043 19.459c-0.216 0.259-0.562 0.432-0.865 0.303-0.087-0.043-0.216-0.216-0.259-0.346s0-0.216 0.087-0.432c1.038-1.557 2.768-2.292 4.281-1.643 0.173 0.087 0.346 0.13 0.476 0.303-1.341-0.173-2.811 0.562-3.719 1.816zM11.676 16.346c-2.162-0.908-4.93 0.519-6.054 3.243s-0.173 5.665 2.032 6.573 4.93-0.519 6.054-3.243 0.259-5.622-2.032-6.573z"></path>
<path d="M25.038 2.422c-0.951 1.341-2.032 2.162-3.33 2.508-1.038 0.173-2.162 0.173-3.287-0.303-0.259-0.13-0.476-0.259-0.735-0.389 0.087-0.13 0.259-0.173 0.432-0.216 0.432-0.216 0.995-0.389 1.557-0.519 0.562-0.173 1.124-0.303 1.686-0.476 0-0.303 0.303-0.303 0.389-0.389-0.13-0.087-0.432-0.087-0.735-0.087 0 0 0.087-0.13 0.13-0.216 0.087-0.13 0.13-0.259 0.259-0.173l0.087-0.13s-0.259 0.173-0.432 0.216c-0.087 0.13-0.259 0.173-0.259 0.173l-0.043 0.043c-0.303 0-0.562 0.173-0.865 0.13 0.087-0.13 0.13-0.216 0.389-0.389 0.13-0.259 0.303-0.303 0.389-0.389-0.173 0.043-0.303 0.303-0.519 0.346-0.259 0.173-0.303 0.303-0.389 0.389-0.087 0.13-0.087 0.13-0.13 0.259l-0.173 0.043c-0.389 0.087-0.562 0.173-0.951 0.259 0.087-0.13 0.303-0.303 0.389-0.389-0.259 0.173-0.389 0.389-0.562 0.476-0.087 0.043-0.173 0.173-0.173 0.173l-0.173 0.043c-0.087 0.13-0.173 0.043-0.259 0.173 0.778-1.124 1.903-1.903 3.114-2.162 1.124-0.303 2.162-0.173 3.2 0.216 0.259 0.13 0.605 0.346 0.951 0.562l0.13 0.087-0.087 0.13zM18.335 12.324c-1.124 2.724-1.384 5.405-0.865 8.173 0.389 1.514 0.216 3.243-0.432 4.8-0.735 1.989-2.249 3.546-4.238 4.368-1.038 0.432-2.119 0.692-3.287 0.692-1.081 0-2.119-0.216-3.114-0.605-2.032-0.822-3.632-2.422-4.454-4.454-0.865-2.032-0.865-4.281 0-6.314 0.605-1.514 1.643-2.768 3.070-3.719 2.335-1.557 4.151-3.762 5.232-6.4 0.649-1.643 2.335-2.724 4.151-2.724 0.562 0 1.124 0.087 1.643 0.303 2.205 0.951 3.243 3.589 2.292 5.881zM25.427 1.687c-0.476-0.259-0.951-0.562-1.557-0.865-1.124-0.476-2.465-0.649-3.676-0.216-1.297 0.346-2.508 1.081-3.33 2.205l-0.13 0.259-0.043-0.173c-0.389-0.995-0.649-1.946-1.124-2.681-0.13-0.086-0.13-0.086-0.259-0.13s-0.303 0-0.303 0-0.216 0.346-0.173 0.562c0.908 1.6 1.168 2.811 1.211 4.541-0.519-0.173-1.038-0.259-1.557-0.259-2.249 0-4.238 1.427-5.189 3.676s-2.681 4.281-4.93 5.665c-1.211 0.822-2.811 2.205-3.676 4.324-0.995 2.378-0.995 4.973 0 7.351 0.951 2.378 2.811 4.195 5.146 5.189 1.168 0.476 2.422 0.735 3.676 0.735 3.892-0.087 7.351-2.465 8.822-6.097 0.692-1.686 0.865-3.632 0.476-5.535-0.519-2.638-0.303-5.276 0.649-7.568 0.605-1.47 0.649-3.027 0.13-4.411-0.476-1.211-1.341-2.119-2.465-2.768 0.043-0.043 0.043-0.13 0-0.346l-0.043-0.173 0.13 0.087c0.259 0.13 0.346 0.216 0.605 0.346 1.124 0.476 2.465 0.605 3.676 0.216 1.816-0.389 3.157-1.687 4.108-3.33 0.087-0.173 0.087-0.476-0.173-0.605z"></path>
<path d="M18.897 2.681c0.259-0.173 0.389-0.389 0.562-0.476-0.173 0.087-0.432 0.259-0.562 0.476z"></path>
<path d="M19.719 2.076s-0.173 0.043-0.259 0.173c0.173-0.087 0.259-0.173 0.259-0.173z"></path>
</symbol>
<symbol id="icon-head-mask" viewBox="0 0 190 32">
<path d="M0 0v31.841c28.364 1.783 55.46-11.552 89.105-18.388 42.343-8.599 86.677 7.401 101.082 15.851-0.059-12.443 0.030-29.305 0.030-29.305h-190.217z"></path>
</symbol>
<symbol id="icon-physical-activity" viewBox="0 0 63 39"><path d="M49.493 36.592a1.62 1.62 0 0 0 1.62-1.624c0-.896-.724-1.624-1.62-1.624-.895 0-1.62.728-1.62 1.624a1.62 1.62 0 0 0 1.62 1.624Zm-.323 2.924c0 .897.725 1.624 1.62 1.624.894 0 1.619-.727 1.619-1.624 0-.897-.725-1.625-1.62-1.625-.894 0-1.62.728-1.62 1.625Zm1.943 4.548a1.62 1.62 0 1 0 3.24 0c0-.898-.725-1.625-1.62-1.625-.895 0-1.62.728-1.62 1.625Zm-20.345 4.872H9.908c-.502 0-.908.436-.908.974 0 .539.406.975.908.975h20.86c.502 0 .908-.436.908-.975 0-.538-.405-.974-.908-.974ZM9.935 37.242h5.256c.517 0 .936-.436.936-.975 0-.538-.419-.974-.936-.974H9.935c-.517 0-.935.436-.935.974 0 .54.42.975.935.975ZM69.902 58.68H52.587L25.845 35.352l1.718-2.008 25.951 22.641c.171.149.382.222.59.222h15.798v2.474ZM34.524 25.564l.015-.016c2.34 2.39 6.084 6.987 3.243 13.643l-8.697-7.414 5.44-6.213Zm3.886-2.615c1.34 0 2.536 1.466 3.92 3.164 1.984 2.434 4.452 5.463 8.682 5.463h.003c.311 0 .628-.017.95-.05 0 0 5.066 15.767 5.102 15.888.763 2.452 1.229 5.175-2.544 6.72L38.878 40.514c3.647-7.937-.836-13.445-3.314-16.021 1.093-1.022 2.047-1.545 2.846-1.545Zm20.534 24.688c8.5.255 10.577 3.236 10.958 6.496h-12.31c2.18-2.08 1.786-4.854 1.352-6.496Zm12.874 6.974c-.293-6.082-4.461-8.895-13.409-9.024L53.38 30.05a.9.9 0 0 0-1.016-.61 8.004 8.004 0 0 1-1.417.132h-.001c-3.38 0-5.369-2.424-7.292-4.768C42.048 22.847 40.533 21 38.338 21c-1.488 0-3.016.862-4.759 2.692l-.004.003-.004.006c-.232.244-.467.502-.708.78l-8.742 10.126a.905.905 0 0 0 .093 1.274l27.624 23.88c.163.142.373.22.59.22h18.516a.902.902 0 0 0 .902-.903v-3.774c0-.118-.012-.624-.028-.693ZM9.903 44.388H22.35c.498 0 .903-.436.903-.974s-.405-.975-.903-.975H9.903c-.5 0-.903.437-.903.975 0 .539.404.974.903.974Z" transform="translate(-9 -21)" id="Header/Title/Icon-Activity"/></symbol>
<symbol id="icon-back-circled" viewBox="0 0 30 30"><path d="M18.769 22.938 11.132 15.3l7.637-7.637L18.037 7 10 14.969v.663l8.037 7.968z"/><path d="M15 30c4.007 0 7.773-1.56 10.606-4.394A14.899 14.899 0 0 0 30 15a14.9 14.9 0 0 0-4.393-10.607A14.9 14.9 0 0 0 15 0C10.991 0 7.225 1.56 4.392 4.394A14.901 14.901 0 0 0 0 15a14.9 14.9 0 0 0 4.393 10.607A14.9 14.9 0 0 0 15 30ZM5.055 5.056A13.97 13.97 0 0 1 15 .937a13.97 13.97 0 0 1 9.944 4.119A13.968 13.968 0 0 1 29.062 15c0 3.756-1.463 7.288-4.118 9.944A13.97 13.97 0 0 1 15 29.063h-.002a13.971 13.971 0 0 1-9.943-4.119A13.97 13.97 0 0 1 .938 15a13.967 13.967 0 0 1 4.118-9.944Z"/></symbol>
<symbol id="icon-help-thinner" viewBox="0 0 30 30"><g id="BTN/Navigation/Icon-help"><g id="Question"><path d="M15 0A14.448 14.448 0 0 0 4.715 4.26a14.448 14.448 0 0 0-4.26 10.285c0 3.885 1.512 7.538 4.26 10.285A14.448 14.448 0 0 0 15 29.09c3.885 0 7.538-1.512 10.285-4.26a14.448 14.448 0 0 0 4.26-10.285c0-3.885-1.512-7.537-4.26-10.284A14.449 14.449 0 0 0 15 0Zm9.642 24.187A13.546 13.546 0 0 1 15 28.182a13.545 13.545 0 0 1-9.642-3.995 13.545 13.545 0 0 1-3.995-9.642c0-3.642 1.419-7.066 3.995-9.641C7.933 2.328 11.358.909 15 .909c3.642 0 7.067 1.419 9.642 3.995 2.576 2.575 3.995 6 3.995 9.641 0 3.643-1.419 7.067-3.995 9.642Z"/><path d="M13.636 19.545h.91v1.819h-.91zM15 6.818c-2.715 0-4.09.918-4.09 2.727h.908c0-.846.362-1.818 3.182-1.818 1.933 0 3.182 1.07 3.182 2.728 0 1.256-1.788 2.43-2.476 2.775-.085.042-2.07 1.069-2.07 4.043v.454h.91v-.454c0-2.39 1.505-3.198 1.566-3.23.122-.06 2.979-1.513 2.979-3.588 0-2.141-1.682-3.637-4.091-3.637Z"/></g></g></symbol>
<symbol id="icon-have-energy" viewBox="0 0 24 24"><path d="M15.604 5.04h-.85V3.36a.35.35 0 0 0-.342-.36H9.386a.351.351 0 0 0-.34.36v1.68h-.65C7.626 5.04 7 5.7 7 6.514v13.012C7 20.34 7.626 21 8.396 21h7.208c.77 0 1.396-.661 1.396-1.474V6.514c0-.813-.626-1.474-1.396-1.474ZM9.727 3.72h4.344v1.32H9.727V3.72Zm6.591 15.806c0 .416-.32.754-.714.754H8.396c-.394 0-.714-.338-.714-.754V6.514c0-.416.32-.754.714-.754h7.208c.394 0 .714.338.714.754v13.012ZM13.961 11h-1.583l.757-2.305a.377.377 0 0 0-.044-.327.336.336 0 0 0-.278-.15h-1.445a.343.343 0 0 0-.32.234l-1.53 4.353a.377.377 0 0 0 .04.33.336.336 0 0 0 .28.155h1.545l-1.108 4.074a.366.366 0 0 0 .194.43c.044.02.089.029.134.029a.338.338 0 0 0 .295-.18l3.357-6.103a.377.377 0 0 0 .001-.36.338.338 0 0 0-.295-.18Z" fill="#fff"/></symbol>
<symbol id="icon-easy-to-lose-weight" viewBox="0 0 24 24"><path fill-rule="evenodd" clip-rule="evenodd" d="M8.61 12.305a.571.571 0 0 1-.047.002c-.263 0-.487-.176-.512-.414-.401-3.966 1.662-4.828 2.265-4.995.285.227.634.38 1.017.38.413 0 .788-.132 1.085-.414h.932c.007 0 .015-.003.023-.007a.057.057 0 0 1 .024-.006c.833-.342 1.588-.88 1.556-1.105 0-.004-.107-.388-1.918-.725a1.622 1.622 0 0 0-.843-.954.579.579 0 0 1 .355-.061c2.267.331 3.336.834 3.445 1.629.128.932-1.282 1.66-1.994 1.98v4.592c-1.48.077-3.344-.109-3.93-.167l-.027-.003v-.44c-.475.033-.915.165-.915.323 0 .142.343.263.795.31l.005.002c.021.003 1.767.206 3.32.206.252 0 .515-.006.752-.019v6.91c0 .37-.337.67-.752.67s-.752-.3-.752-.67v-1.462c-.237-.821-.448-1.952-.6-2.98-.088.63-.19 1.313-.35 1.947v2.495c0 .37-.336.671-.751.671s-.752-.3-.752-.67v-1.39c-.554-1.834-1.058-4.77-1.21-5.71a.48.48 0 0 1-.22.075Zm1.431-.877V8.046c-.474.408-1.208 1.372-1.014 3.614.227-.108.619-.192 1.014-.232Zm2.875-5.984c0 .78-.709 1.656-1.583 1.656S9.75 6.224 9.75 5.444c0-.78.709-1.412 1.583-1.412s1.583.632 1.583 1.412Z" fill="#fff"/></symbol>
<symbol id="icon-since-desired-weight" viewBox="0 0 24 24"><path fill-rule="evenodd" clip-rule="evenodd" d="M5.853 18.125h11.12v-5.258l1.854-1.647v6.905c0 1.035-.83 1.875-1.853 1.875H5.854A1.865 1.865 0 0 1 4 18.125V6.875C4 5.84 4.83 5 5.853 5h11.12c.643 0 1.207.33 1.54.832l-1.54 1.364v-.321H5.854v11.25Zm5.306-1.316-1.627-1.874-2.404-2.767 1.89-1.68 2.404 2.768 6.893-6.127L20 9.069l-8.783 7.806-.058-.066Z" fill="#fff"/></symbol>
<symbol id="icon-next" viewBox="0 0 30 30"><g id="BTN/NextPage/Icon-Right" fill-rule="nonzero"><g id="Right"><path d="M18.769 22.938 11.132 15.3l7.637-7.637L18.037 7 10 14.969v.663l8.037 7.968z" transform="matrix(-1 0 0 1 30 0)"/><path d="M15 30c4.007 0 7.773-1.56 10.606-4.394A14.899 14.899 0 0 0 30 15a14.9 14.9 0 0 0-4.393-10.607A14.9 14.9 0 0 0 15 0C10.991 0 7.225 1.56 4.392 4.394A14.901 14.901 0 0 0 0 15a14.9 14.9 0 0 0 4.393 10.607A14.9 14.9 0 0 0 15 30ZM5.055 5.056A13.97 13.97 0 0 1 15 .937c3.757 0 7.288 1.463 9.944 4.119A13.968 13.968 0 0 1 29.062 15c0 3.756-1.463 7.288-4.118 9.944A13.97 13.97 0 0 1 15 29.063h-.002a13.971 13.971 0 0 1-9.943-4.119A13.97 13.97 0 0 1 .938 15C.937 11.244 2.4 7.712 5.056 5.056Z" transform="matrix(-1 0 0 1 30 0)"/></g></g></symbol>
<symbol id="icon-care-about-calories" viewBox="0 0 24 24"><path fill-rule="evenodd" clip-rule="evenodd" d="m7.406 18.512-.005-.004c-.92-.779-1.39-1.693-1.4-2.718-.01-.927.375-1.956 1.111-2.975A8.368 8.368 0 0 1 8.23 11.55l.413-.364-.07.556c-.003.019-.19 1.607.549 2.436a6.775 6.775 0 0 1-.17-1.33 6.063 6.063 0 0 1 .243-1.91 5.67 5.67 0 0 1 1.133-2.067c.947-1.11 1.628-2.151 2.022-3.095.364-.873.353-1.352.34-1.478-.016-.18.096-.253.13-.271.167-.087.326.06.378.109.234.216.76.929 1.083 2.079a6.402 6.402 0 0 1-.15 3.937 2.96 2.96 0 0 0-.081.888c.029.46.168.845.414 1.151.007-.226.024-.508.063-.799.126-.95.418-1.51.868-1.665l.274-.095v.3c0 .008.013.975.697 1.674.383.39.682.822.89 1.283.322.709.71 1.79.742 2.915.037 1.346-.434 2.43-1.402 3.224l-.017.014-.518.268v.537a.11.11 0 0 1-.029.077.098.098 0 0 1-.076.031h-.365a.106.106 0 0 1-.104-.108v-2.974c0-.033.01-.059.03-.079.02-.019.045-.029.074-.029h.365c.032 0 .057.01.076.03.02.019.029.045.029.078v1.954l.293-.15c1.936-1.607 1.16-4.2.525-5.605a4.05 4.05 0 0 0-.806-1.159c-.522-.533-.712-1.18-.781-1.587-.16.219-.282.603-.351 1.125-.083.62-.06 1.21-.06 1.222l.018.444-.349-.26c-.556-.414-.873-1.038-.918-1.805a3.332 3.332 0 0 1 .101-1.03l.005-.014c.58-1.59.366-2.98.085-3.866-.225-.708-.522-1.206-.727-1.48-.033.293-.127.72-.363 1.286-.412.985-1.116 2.064-2.092 3.209-.884 1.035-1.312 2.273-1.272 3.678.029 1.05.32 1.796.323 1.803l.198.5-.477-.221c-.651-.302-1.074-.964-1.223-1.914a5.121 5.121 0 0 1-.059-.756c-.602.644-1.729 2.05-1.713 3.54.009.89.428 1.692 1.246 2.386.09.072.186.142.276.203v-1.453c0-.033.01-.06.028-.081a.097.097 0 0 1 .076-.032h.391c.032 0 .058.01.078.032.02.02.03.048.03.08v1.052l.97-1.083a.207.207 0 0 1 .17-.08h.442a.09.09 0 0 1 .063.026.09.09 0 0 1 .028.068c0 .02-.007.039-.021.054l-1.182 1.356 1.269 1.487c.011.021.017.04.017.059 0 .027-.009.05-.026.067a.082.082 0 0 1-.06.027h-.457c-.06 0-.104-.013-.13-.038l-.044-.043-1.038-1.186v1.16a.106.106 0 0 1-.109.107h-.391a.106.106 0 0 1-.104-.108v-.968a2.81 2.81 0 0 1-.16-.097 5.096 5.096 0 0 1-.374-.27Zm3.747-.323a.432.432 0 0 1 .345-.143c.11 0 .2.025.272.076a.524.524 0 0 1 .171.247c.015.036.03.06.044.074.014.014.038.02.07.02h.386c.029 0 .054-.01.076-.03a.09.09 0 0 0 .028-.077.729.729 0 0 0-.123-.349.906.906 0 0 0-.352-.307 1.225 1.225 0 0 0-.58-.126c-.32 0-.573.091-.763.274-.19.183-.29.436-.302.76l-.004.179.004.18c.012.323.112.576.302.759.19.183.444.274.763.274.234 0 .43-.043.586-.13a.924.924 0 0 0 .348-.313.73.73 0 0 0 .121-.339.09.09 0 0 0-.028-.076.106.106 0 0 0-.076-.031h-.387c-.031 0-.055.007-.071.022a.183.183 0 0 0-.042.072c-.043.117-.1.2-.169.25a.462.462 0 0 1-.274.073c-.301 0-.46-.194-.478-.584l-.004-.148.004-.166c.006-.198.05-.345.133-.44Zm3.191.75c0 .204-.05.36-.152.468a.513.513 0 0 1-.39.162.475.475 0 0 1-.277-.079.253.253 0 0 1-.115-.222c0-.177.167-.292.5-.346l.434-.072v.09Zm.044.985c.02.02.044.031.073.031h.361c.032 0 .057-.01.076-.031a.11.11 0 0 0 .029-.077v-1.41c0-.258-.079-.466-.235-.625-.157-.159-.406-.238-.748-.238-.208 0-.383.035-.525.105a.839.839 0 0 0-.315.248.484.484 0 0 0-.107.253.094.094 0 0 0 .096.1h.339c.032 0 .053-.019.065-.055l.023-.024.049-.05a.736.736 0 0 1 .14-.11.433.433 0 0 1 .231-.054c.14 0 .24.033.304.1.064.065.096.163.096.291v.095l-.595.09c-.279.044-.497.13-.657.256a.6.6 0 0 0-.238.494c0 .125.035.24.106.346.07.105.168.188.291.249a.9.9 0 0 0 .406.092c.174 0 .319-.03.435-.092a.72.72 0 0 0 .27-.236v.175c0 .03.01.056.03.077Z" fill="#fff"/></symbol>
<symbol id="icon-meat" viewBox="0 0 49 50"><g id="Header/Title/Icon-Meat"><path d="M6.987 11.724c.166 0 .33.015.488.046 1.595.313 4.673 2.442 6.825 4.17l.54.434.082-.694c.12-1.015.297-1.725.346-1.91l.01-.014.028-.087.075-.296-.266-.145c-.865-.47-2.558-1.483-3.468-2.027-.277-.165-.471-.282-.534-.318-.674-.388-1.434-.824-1.97-1.505-.485-.62-.554-.997-.59-1.393a1.175 1.175 0 0 0-.114-.444c-.635-1.428-1.767-1.714-2.225-1.77A2.324 2.324 0 0 0 5.9 5.75c-.352 0-.69.088-.905.236l-.267.183.131.298c.068.154.228.407.61.74a.9.9 0 0 1 .222 1.051.885.885 0 0 1-.94.5c-.086-.014-.261-.05-.471-.093-.8-.164-1.21-.242-1.39-.242h-.035l-.062.008-.407.076.066.26a2.289 2.289 0 0 0-.091.209c-.204.54-.091 1.526.263 2.292.266.579.634.986 1.01 1.119.111.039.234.058.368.058.382 0 .828-.163 1.259-.32.546-.197 1.113-.401 1.726-.401m19.382 16.992c-1.21 0-2.015 0-2.091-.003-.9-.16-1.812-.403-2.663-.72l-.108-.039-.111.025c-.944.22-1.908.332-2.87.332a14.152 14.152 0 0 1-8.833-3.13c-2.488-2.002-3.873-4.5-3.802-6.855.017-.526.485-.852.926-.862a.89.89 0 0 1 .832.917c-.054 1.762 1.118 3.783 3.136 5.406 1.948 1.563 4.483 2.555 6.956 2.722l1.096.074-.81-.752a9.27 9.27 0 0 1-1.591-1.915c-.886-1.422-1.416-3.115-1.578-5.033l-.012-.15-.108-.102c-1.821-1.722-6.124-4.823-7.595-5.112a.863.863 0 0 0-.157-.014c-.297 0-.674.13-1.135.298-.557.2-1.178.425-1.848.425a2.8 2.8 0 0 1-.943-.16c-.834-.293-1.555-1.02-2.027-2.049-.567-1.231-.69-2.675-.312-3.677.396-1.045 1.042-1.593 1.975-1.675l.355-.031-.003-.36a2.045 2.045 0 0 1 .109-.67c.322-.947 1.307-1.57 2.57-1.629.068-.004.134-.005.2-.005 1.379 0 3.182.745 4.113 2.837.212.472.243.795.262 1.009-.01.148.097.302.218.455.207.265.836.675 1.922 1.34.204.124.364.222.435.27.9.614 3.24 1.876 4.204 2.39l.164.087.17-.075a12.434 12.434 0 0 1 5.033-1.048c5.877 0 10.725 3.905 10.928 4.072a.892.892 0 0 1-.553 1.58.863.863 0 0 1-.55-.196c-.188-.15-4.599-3.642-9.872-3.642-1.921 0-3.724.472-5.357 1.402l-.153.087-.035.174c-.138.68-.356 2.059-.269 3.656.105 1.814.555 3.354 1.342 4.613 1.292 2.073 3.508 3.406 6.587 3.961l.033.006h15.476l.064-.024c.838-.313 5.085-2.059 6.468-5.752.92-2.454.428-5.34-1.465-8.58-3.25-5.56-8.735-9.583-14.318-10.497a15.616 15.616 0 0 0-2.516-.206c-4.155 0-8.304 1.719-12 4.971a.872.872 0 0 1-1.24-.09.9.9 0 0 1 .09-1.254C19.127 1.979 23.67.109 28.241.109c.934 0 1.88.078 2.815.23 6.081.998 12.038 5.347 15.547 11.349 2.182 3.734 2.717 7.144 1.59 10.135-1.778 4.715-7.132 6.653-7.717 6.852-.71.026-9.434.041-14.108.041" transform="translate(0 13)"/><path d="M10.85 48.08h27.051l1.946-2.159H9.18l1.67 2.159ZM10.445 50a.846.846 0 0 1-.67-.34l-2.7-3.482a.572.572 0 0 0-.052-.092l-.116-.164H.88c-.485 0-.879-.431-.879-.961S.394 44 .88 44h46.242c.484 0 .878.43.878.96 0 .531-.394.962-.878.962h-4.88l-.115.167a.836.836 0 0 0-.065.112l-3.168 3.514a.836.836 0 0 1-.625.285H10.444ZM20.239 12c-.354 0-.683-.166-.859-.435-.269-.413-.105-.943.368-1.18 1.903-.953 1.452-1.913.337-3.822-1.116-1.909-2.062-4.061.855-5.457A1.08 1.08 0 0 1 21.411 1c.362 0 .695.173.868.452a.763.763 0 0 1 .08.657.887.887 0 0 1-.474.514c-1.299.623-1.184 1.198-.042 3.151.938 1.607 2.508 4.295-1.115 6.113-.15.073-.319.113-.49.113"/><path d="M27.517 11a.835.835 0 0 1-.674-.344.865.865 0 0 1-.16-.637.854.854 0 0 1 .328-.566c.565-.435.249-1.213-.315-2.448-.676-1.487-1.18-2.9.07-3.838a.834.834 0 0 1 1.183.184c.26.36.203.87-.129 1.161l-.15.133.025.2c.038.323.276.864.537 1.436.75 1.65 1.35 3.357-.204 4.547a.83.83 0 0 1-.507.172h-.004Z" id="Fill-8"/><path d="M34.162 8a.721.721 0 0 1-.116-.01c-.455-.068-.769-.513-.704-.99l.005-.036-.002-.035c-.01-.23-.176-.685-.523-1.555-.54-1.355-1.152-2.887-.613-4.107.181-.406.577-.95 1.433-1.228A.79.79 0 0 1 33.89 0c.364 0 .68.248.788.618a.907.907 0 0 1-.059.666.833.833 0 0 1-.488.426.833.833 0 0 0-.351.195l-.042.045-.026.056c-.175.372-.014 1.048.636 2.683.395.987.735 1.837.635 2.56-.058.429-.41.751-.82.751" id="Fill-10"/></g></symbol>
<symbol id="icon-pork" viewBox="0 0 56 56"><g fill-rule="evenodd"><g id="Icon/Test/2/Pork-Include"><path d="M51.396 45.286a3.091 3.091 0 0 1-3.231.715 1.787 1.787 0 0 0-2.29 2.288 3.103 3.103 0 0 1-.715 3.234 3.066 3.066 0 0 1-2.181.903h-.001c-.824 0-1.6-.321-2.182-.904a3.089 3.089 0 0 1-.027-4.337l.04-.038a1.789 1.789 0 0 0 .03-2.555l-3.047-3.047 3.627-3.627 3.046 3.047c.34.34.78.53 1.283.524.48-.006.938-.204 1.27-.55l.037-.039a3.064 3.064 0 0 1 2.16-.881 3.06 3.06 0 0 1 2.18.904c.583.583.904 1.358.904 2.183a3.056 3.056 0 0 1-.903 2.18m-40.74-34.442c4.315-4.315 9.57-7.103 13.39-7.103 1.364 0 2.413.358 3.12 1.06l.01.01c1.218 1.226 1.394 3.58.48 6.462-1.054 3.328-3.371 6.897-6.522 10.048-4.317 4.314-9.571 7.102-13.389 7.102-1.04 0-1.894-.21-2.556-.62l-.632-.632-.048.048c-2.294-2.595-.388-9.84 6.147-16.375m43.268 27.551a6.612 6.612 0 0 0-4.709-1.952 6.623 6.623 0 0 0-3.328.888l-2.269-2.268c1.381-3.014 3.12-9.575.34-16.298-1.04-2.517-2.629-4.854-4.726-6.95l-9.521-9.523c-.005-.004-.008-.01-.013-.013l-.011-.01-.113-.114-.007.007C28.194.859 26.293.167 24.045.167c-4.79 0-10.889 3.122-15.917 8.15-7.74 7.74-10.391 17.214-6.036 21.568.24.24.505.455.78.656l8.818 8.818c4.99 4.991 10.426 6.206 14.534 6.206.539 0 1.053-.02 1.542-.057 2.903-.213 5.53-1.021 7.172-1.764l2.27 2.27c-1.466 2.546-1.113 5.861 1.06 8.035A6.617 6.617 0 0 0 42.978 56h.001a6.618 6.618 0 0 0 4.71-1.95 6.678 6.678 0 0 0 1.93-4.305 6.672 6.672 0 0 0 4.306-1.932 6.61 6.61 0 0 0 1.949-4.71 6.617 6.617 0 0 0-1.95-4.708"/><path d="M18.456 13.544a1.86 1.86 0 0 1 0 2.63l-3.282 3.282a1.86 1.86 0 0 1-2.63-2.63l3.282-3.282a1.86 1.86 0 0 1 2.63 0"/></g></g></symbol>
</defs>
</svg>
