<?xml version="1.0" encoding="UTF-8"?>
<svg width="404px" height="366px" viewBox="0 0 404 366" version="1.1" xmlns="http://www.w3.org/2000/svg" xmlns:xlink="http://www.w3.org/1999/xlink">
    <title>card-blood-sugar</title>
    <g id="Page-1" stroke="none" stroke-width="1" fill="none" fill-rule="evenodd">
        <g id="card-blood-sugar" transform="translate(0.000000, -0.000061)">
            <path d="M392,0 L12,0 C5.37258,0 0,5.37259104 0,11.999961 L0,354.000061 C0,360.627061 5.37258,366.000061 12,366.000061 L392,366.000061 C398.627,366.000061 404,360.627061 404,354.000061 L404,11.999961 C404,5.37258104 398.627,0 392,0 Z" id="card-bgr" fill="#151226" fill-rule="nonzero"></path>
            <g id="chart" transform="translate(12.000000, 88.500061)">
                <g id="grid" transform="translate(15.000050, 0.000000)" stroke="#FFFFFF" stroke-dasharray="4" stroke-linecap="round" stroke-opacity="0.1">
                    <line x1="0.49995" y1="213" x2="0.50005" y2="0" id="Line"></line>
                    <line x1="29.49995" y1="213" x2="29.50005" y2="0" id="Line_2"></line>
                    <line x1="58.50005" y1="213" x2="58.50005" y2="0" id="Line_3"></line>
                    <line x1="87.49995" y1="213" x2="87.49995" y2="0" id="Line_4"></line>
                    <line x1="116.49995" y1="213" x2="116.49995" y2="0" id="Line_5"></line>
                    <line x1="145.49995" y1="213" x2="145.49995" y2="0" id="Line_6"></line>
                    <line x1="174.49995" y1="213" x2="174.49995" y2="0" id="Line_7"></line>
                    <line x1="203.49995" y1="213" x2="203.49995" y2="0" id="Line_8"></line>
                    <line x1="232.49995" y1="213" x2="232.49995" y2="0" id="Line_9"></line>
                    <line x1="261.49995" y1="213" x2="261.49995" y2="0" id="Line_10"></line>
                    <line x1="290.49995" y1="213" x2="290.49995" y2="0" id="Line_11"></line>
                    <line x1="319.49995" y1="213" x2="319.49995" y2="0" id="Line_12"></line>
                    <line x1="348.49995" y1="213" x2="348.49995" y2="0" id="Line_13"></line>
                </g>
                <path d="M98.5,95 L97.346,96.633 L98.5,95 Z M190,169.5 L189.714,171.479 L190,169.5 Z M277,125.5 L276.647,123.531 L277,125.5 Z M362.554,134.45 C363.63,134.696 364.703,134.023 364.95,132.946 C365.196,131.87 364.523,130.797 363.446,130.55 L362.554,134.45 Z M16,61 C15.6709,62.973 15.6709,62.973 15.6709,62.973 C15.6709,62.973 15.6709,62.973 15.6709,62.973 C15.6724,62.973 15.6739,62.973 15.676,62.974 C15.6804,62.974 15.6874,62.976 15.6972,62.977 C15.7166,62.98 15.7469,62.986 15.7877,62.993 C15.8694,63.007 15.9933,63.029 16.1578,63.059 C16.487,63.118 16.9787,63.21 17.6203,63.336 C18.9035,63.589 20.7855,63.981 23.1642,64.534 C27.9224,65.64 34.6629,67.391 42.5685,69.964 C58.3945,75.116 78.8162,83.539 97.346,96.633 L99.654,93.367 C80.6838,79.961 59.8555,71.384 43.8065,66.161 C35.7746,63.546 28.9213,61.766 24.0701,60.638 C21.6441,60.074 19.7176,59.673 18.3934,59.412 C17.7313,59.281 17.2196,59.186 16.8712,59.123 C16.6971,59.091 16.5637,59.068 16.4728,59.052 C16.4273,59.044 16.3924,59.038 16.3684,59.034 C16.3563,59.032 16.347,59.03 16.3404,59.029 C16.3371,59.029 16.3345,59.028 16.3325,59.028 C16.3316,59.028 16.3306,59.028 16.3302,59.027 C16.3294,59.027 16.3288,59.027 16,61 Z M97.346,96.633 C119.831,112.523 129.724,128.966 140.657,142.805 C146.114,149.713 151.844,155.97 159.517,160.957 C167.204,165.952 176.731,169.602 189.714,171.479 L190.286,167.521 C177.78,165.712 168.822,162.234 161.696,157.603 C154.556,152.962 149.143,147.095 143.795,140.325 C133.117,126.809 122.749,109.687 99.654,93.367 L97.346,96.633 Z M189.714,171.479 C201.791,173.225 211.053,171.734 218.752,168.303 C226.408,164.89 232.369,159.62 237.913,154.089 C249.103,142.924 258.613,130.832 277.353,127.469 L276.647,123.531 C256.387,127.168 245.897,140.473 235.087,151.257 C229.631,156.701 224.092,161.543 217.123,164.649 C210.197,167.737 201.709,169.172 190.286,167.521 L189.714,171.479 Z M277.353,127.469 C292.548,124.741 313.772,126.445 331.375,128.89 C340.14,130.107 347.941,131.499 353.551,132.586 C356.355,133.129 358.61,133.596 360.162,133.927 C360.938,134.092 361.538,134.223 361.943,134.313 C362.146,134.358 362.299,134.392 362.402,134.415 C362.453,134.427 362.492,134.435 362.517,134.441 C362.53,134.444 362.539,134.446 362.545,134.448 C362.548,134.448 362.551,134.449 362.552,134.449 C362.553,134.449 362.553,134.449 362.553,134.45 C362.554,134.45 362.554,134.45 363,132.5 C363.446,130.55 363.446,130.55 363.445088,130.55 C363.445088,130.55 363.444,130.55 363.443,130.55 C363.441,130.549 363.438,130.549 363.435,130.548 C363.427,130.546 363.417,130.544 363.403,130.541 C363.375,130.534 363.335,130.525 363.281,130.513 C363.174,130.489 363.015,130.453 362.808,130.407 C362.393,130.316 361.783,130.182 360.996,130.014 C359.422,129.679 357.143,129.207 354.312,128.659 C348.651,127.562 340.777,126.158 331.925,124.928 C314.295,122.479 292.519,120.683 276.647,123.531 L277.353,127.469 Z" id="curve" fill="#F53373" fill-rule="nonzero"></path>
                <g id="pointers" transform="translate(0.000000, 45.500000)" fill="#F39800" fill-rule="nonzero">
                    <g id="5" transform="translate(348.000000, 71.000000)">
                        <circle id="Ellipse" opacity="0.2" cx="16" cy="16" r="16"></circle>
                        <circle id="Ellipse_2" cx="16" cy="16" r="9"></circle>
                    </g>
                    <g id="4" transform="translate(261.000000, 64.000000)">
                        <circle id="Ellipse_3" opacity="0.2" cx="16" cy="16" r="16"></circle>
                        <circle id="Ellipse_4" cx="16" cy="16" r="9"></circle>
                    </g>
                    <g id="3" transform="translate(174.000000, 107.000000)">
                        <circle id="Ellipse_5" opacity="0.2" cx="16" cy="16" r="16"></circle>
                        <circle id="Ellipse_6" cx="16" cy="16" r="9"></circle>
                    </g>
                    <g id="2" transform="translate(87.000000, 36.000000)">
                        <circle id="Ellipse_7" opacity="0.2" cx="16" cy="16" r="16"></circle>
                        <circle id="Ellipse_8" cx="16" cy="16" r="9"></circle>
                    </g>
                    <g id="1">
                        <circle id="Ellipse_9" opacity="0.2" cx="16" cy="16" r="16"></circle>
                        <circle id="Ellipse_10" cx="16" cy="16" r="9"></circle>
                    </g>
                </g>
            </g>
            <text id="Blood-sugar" font-family="ArialUnicodeMS, Arial Unicode MS" font-size="28" font-weight="normal" fill="#FFFFFF">
                <tspan x="22" y="54.000061">Blood sugar</tspan>
            </text>
            <text id="Starting-keto" font-family="ArialUnicodeMS, Arial Unicode MS" font-size="12" font-weight="normal" fill="#FFFFFF">
                <tspan x="11" y="325.000061">Starting keto</tspan>
            </text>
            <text id="Getting-into-ketosis" font-family="ArialUnicodeMS, Arial Unicode MS" font-size="12" font-weight="normal" fill="#FFFFFF">
                <tspan x="165.814453" y="325.000061">Getting into </tspan>
                <tspan x="177.826172" y="341.000061">ketosis</tspan>
            </text>
            <text id="Sustaining-Keto-Life" font-family="ArialUnicodeMS, Arial Unicode MS" font-size="12" font-weight="normal" fill="#FFFFFF">
                <tspan x="309.470703" y="325.000061">Sustaining Keto </tspan>
                <tspan x="329.489258" y="341.000061">Lifestyle</tspan>
            </text>
        </g>
    </g>
</svg>