<svg id="a" class="a-icon a-button-gender__icon" viewBox="0 0 57.7 85.7" xmlns="http://www.w3.org/2000/svg"><desc>Created with Sketch.</desc><g><g><g transform="translate(7 1)"><path class="st0" d="m35.5 83.5c0.2 0.4 0 0.9-0.4 1.1s-0.9 0-1.1-0.4c-0.3-0.6-0.7-1.3-1.1-1.8-0.3-0.5-0.1-1.2 0.5-1.3 0.1 0 3.5-2.2 6.2-4 3.7-2.5 6.5-4.6 7.1-5.3 0.1-0.2 0.5-0.6 0.5-0.5 0.2-0.3 0.4-0.5 0.7-1 0.3-0.4 0.4-0.5 0.5-0.6l0.3-0.3c0.1-0.2 0.2-0.3 0.3-0.4 0.3-0.4-0.3-2.9-1.4-6.6-0.1-0.2-0.1-0.5-0.2-0.8l-0.3-0.9c-0.1-0.5-0.2-0.7-0.3-0.9-0.2-0.7-0.4-1.2-0.5-1.7-0.4-1.2-0.6-2-0.7-2.6-0.1-1.3-0.3-2.5-0.6-3.7l-0.3-1.2c-0.2-0.7-0.5-1.4-0.8-2.2-0.1-0.4-0.8-2.2-1-2.6-0.3-0.9-0.5-1.5-0.6-2 0-1.6-0.2-3.4-0.4-4.4-0.2-0.9-0.9-2.1-1.7-3.1-0.2-0.3-0.2-0.3-0.3-0.4s-0.2-0.3-0.5-0.5c-0.1-0.1-0.6-0.6-0.6-0.7-0.3-0.3-0.5-0.5-0.7-0.8l-0.2-0.2c-0.8-0.8-1.3-1.5-1.7-1.9-1.5-1.9-2.4-4.1-3-7-0.4-1.9-0.5-3.6-0.1-5.1 0-0.1 0.1-0.2 0.2-0.3 0.5-0.6 1-1.2 1.6-2 0.1-0.1 1.2-1.6 1.5-1.9 0.1-0.2 0.3-0.4 0.5-0.8 0.2-0.2 0.2-0.3 0.3-0.4s0.1-0.2 0.2-0.3c0.4-0.5 0.7-1.2 1.2-2.1 0.1-1 1.7-1 1.7 0.1 0 0.7-0.1 1.4-0.2 2.1 0 0.3-0.1 0.6-0.2 1-0.1 0.6-0.1 0.7-0.2 1-0.2 0.7-0.3 1.3-0.6 2.5 0 0.4-0.1 0.5-0.1 0.7-0.7 2.7-1 4.3-1 6 0 3.3 1.5 5.7 3.8 7.4 0.4 0.3 0.9 0.6 1.3 0.8-1.3-2.5-1.3-5.5-0.4-9.6 0.1-0.6 0.2-1.1 0.5-2.1 0.7-2.9 0.9-4 1-5.4 0.2-2.7-0.3-5.8-1.2-8.4-1-2.5-2.2-4.4-3.7-5.2-0.1 0-0.1-0.1-0.2-0.1l-0.3-0.3c-0.8-0.6-1.8-0.8-2.3-0.3l-0.2 0.2c-0.1 0.3-0.4 0.5-0.8 0.5-0.6 0-0.8-0.1-2.1-0.8l-0.8-0.4c-0.5-0.2-1-0.3-2-0.5-0.6-0.1-1-0.2-1.4-0.3-1.3-0.1-2.6 0-3.8 0.3-0.1 0-0.2 0-0.3 0.1-0.1 0-0.2 0-0.3 0.1-0.3 0.1-0.5 0.1-0.7 0.2-0.7 0.1-1.1 0.2-1.4 0.4-0.4 0.1-0.8 0.3-1.3 0.5-0.7 0.4-1.4 0.9-2 1.5-0.2 0.2-0.3 0.4-0.5 0.8-0.1 0.2-0.2 0.3-0.2 0.4-0.1 0.3-0.2 0.5-0.2 0.6v0.5 0.3c0.2 0.3 0.1 0.7-0.2 1-0.1 0.1-0.1 0.2-0.1 0.2-0.1 0.2-0.2 0.3-0.2 0.5-0.1 0.2-0.2 0.3-0.3 0.4-0.2 0.4-0.3 0.7-0.5 1-0.1 0.3-0.3 0.5-0.6 0.5h0.2c-0.1 0.3-0.2 0.4-0.2 0.5s-0.1 0.2-0.1 0.2c-0.1 0.1-0.1 0.2-0.1 0.3s-0.1 0.2-0.1 0.3-0.1 0.2-0.1 0.3c-0.1 0.2-0.1 0.8 0.1 1.4v0.6c0 0.2-0.1 0.3-0.2 0.5-0.4 0.6-0.8 1-1.3 1.4-0.2 0.2-0.8 0.6-0.7 0.6l-0.4 0.4c0.1 0.2 0.2 0.3 0.3 0.4 0.2 0.1 0.3 0.1 0.3 0.2 0.2 0.2 0.3 0.2 0.4 0.3l0.2 0.2c0.1 0.1 0.2 0.2 0.3 0.4 0.1 0.1 0.1 0.2 0.2 0.3s0.1 0.2 0.1 0.4c0 0.3 0 0.5-0.1 0.6l-0.3 0.6c0.1 0.2 0.2 0.4 0.2 0.6 0-0.2-0.1-0.4-0.2-0.5l0.2 0.2c0.4 0.4 0.4 1 0.1 1.3l0.3 0.3c0.5 0.6 0.5 1 0.3 1.9-0.1 0.5-0.1 0.6 0 0.6 0.1 0.1 0.2 0.1 0.2 0.2 0 0 0.2 0.1 0.5 0.3 0 0 0.1 0.1 0.3 0.1h0.6 0.9c0.3-0.1 0.5-0.2 0.7-0.2 0.3 0 0.3-0.1 0.5-0.1h0.2c0.1-0.1 0.3-0.1 0.4-0.1 0.1-0.1 0.2-0.1 0.4-0.1s0.3-0.1 0.6-0.1c0.2 0 0.3-0.1 0.5-0.1h0.2c0.4 0 0.9 0.1 1.5 0.2 0.2 0.1 0.4 0.2 0.6 0.4 0.7 1.5 1.5 3.2 1.9 4.5 0 0.2 0.1 0.3 0 0.5-0.2 0.7-0.5 1.1-1 1.6l-0.8 0.8c-0.4 0.4-0.7 0.7-1.4 1.2-0.6 0.5-0.9 0.7-1.2 1-0.1 0.1-0.3 0.3-0.3 0.5-0.2 0.4-0.5 0.6-0.9 0.8-0.3 0.2-0.6 0.3-1.1 0.6l-1.2 0.6c-0.5 0.2-0.9 0.5-1.5 0.8-0.2 0.1-0.4 0.2-0.7 0.4s-0.5 0.3-0.7 0.4c-0.9 0.5-1.6 0.9-2.3 1.3-0.9 0.5-1.7 1-2.5 1.6-1.9 1.3-3.6 3.8-4 5.7-0.4 1.8 0.3 3.7 1.5 4.4 0.3 0.2 0.4 0.4 0.4 0.7v0.7c0 0.3-0.1 0.5-0.3 0.7-0.2 0.1-0.2 0.2-0.5 0.4-0.6 0.4-1.1 0.9-2.5 2.5-0.5 0.5-1.4 0.3-1.5-0.4-0.1-0.4-0.5-1.4-1.8-4-0.2-0.5-0.3-0.7-0.5-1-0.4-1.2-0.9-2.2-1.4-3.6-0.7-2-1.4-4.1-1.8-6.3-0.3-1.8 0-2.6 0.9-3 0.2-0.2 0.7-0.9 1-1.5 0.1-0.2 0.4-0.6 0.9-1.2 0.2-0.3 0.4-0.6 0.6-0.8v-0.7s-0.1 0-0.3 0.1c-0.6 0.3-1.3-0.3-1.1-1v-0.7c0-0.3-0.1-0.3-0.6-0.3-0.1 0-1 0.1-1.2 0.2-1.6 0.2-2.4 0.5-2.5 0.6s-0.2 0.5-0.4 1.1c-0.1 0.3-0.2 0.6-0.2 1 0 0.2-0.1 0.4-0.1 0.4v0.3c0 0.3-0.1 0.6-0.1 0.9-0.1 0.6-0.1 1.3-0.1 1.8 0 0.8 0 1.5 0.1 1.9 0.1 0.1 0.2 0.3 0.2 0.5 0.5 5.3 1.5 11.6 2.7 17.3 0.5 2.5 1.1 4.8 1.5 6.4 0.2 0.8 0.4 1.4 0.6 1.8 0.1 0.1 0.1 0.3 0.2 0.4 0.5 0.1 1.7-0.1 2.3-0.3 0.2-0.1 1.2-0.6 2.5-1.3 0.5-0.3 1.7-1 1.8-1 0.3-0.1 0.4-0.3 0.6-0.3 0.1 0 0.1-0.1 0.2-0.1 0.1-0.1 0.1-0.1 0.5-0.1s0.8 0.3 0.8 0.7c0 0.1 0 0.4 0.1 0.7 0 0.1 0.1 2.5 0.1 3.6 0.1 1.9 0.2 3.8 0.4 5.7 0.2 2.9 1.1 5.7 2.6 9.2 0.2 0.4 0 0.9-0.4 1.1s-0.9 0-1.1-0.4c-1.6-3.6-2.5-6.6-2.8-9.7-0.2-1.9-0.3-3.8-0.4-5.8 0-0.7-0.1-2-0.1-2.8-0.4 0.2-1.1 0.6-1.3 0.8-1.9 0.6-2.7 1-3.1 1.2-1.1 0.4-2.9 0.7-3.7 0.3-1.5-0.7-4.7-15.9-5.8-26.9-0.1-0.1-0.1-0.2-0.1-0.3-0.2-0.6-0.2-1.5-0.2-2.7 0-0.6 0.1-1.3 0.1-1.9 0-0.3 0.1-0.6 0.1-0.9v-0.4c0-0.1 0.1-0.3 0.1-0.5 0.1-0.4 0.2-0.7 0.2-1.1 0.2-0.7 0.4-1.3 0.6-1.6 0.5-0.7 1.4-1 3.7-1.3 0.2 0 1.1-0.2 1.2-0.2 1.4-0.2 2.3 0.5 2.5 1.6 0.2 0 0.5 0 0.7 0.2 0.4 0.3 0.6 0.8 0.8 1.4 0.1 0.5 0.2 1 0.2 1.3 0 0.2-0.1 0.4-0.2 0.5s-0.1 0.2-0.3 0.3c-0.2 0.2-0.4 0.5-0.6 0.7-0.4 0.5-0.7 0.9-0.7 1-0.4 0.9-1 1.8-1.5 2.1l-0.2 0.1c-0.2 0.2-0.2 0.3 0 1.3 0.4 2 1 4 1.8 6 0.5 1.3 0.9 2.3 1.4 3.4 0.1 0.3 0.2 0.5 0.5 1 0.7 1.4 1.1 2.3 1.4 3 0.8-0.9 1.3-1.3 1.8-1.6-1.5-1.3-2.3-3.6-2-5.9 0.4-2.5 2.4-5.4 4.7-6.9 0.8-0.6 1.7-1.1 2.6-1.7 0.7-0.4 1.4-0.8 2.4-1.3 0.2-0.1 0.4-0.2 0.7-0.4 0.4-0.2 0.6-0.3 0.7-0.4 0.6-0.3 1-0.5 1.5-0.8 0.3-0.2 0.6-0.3 1.1-0.6l1.2-0.6c0.3-0.3 0.5-0.7 0.8-0.9 0.4-0.4 0.7-0.7 1.4-1.2 0.6-0.5 0.9-0.7 1.2-1 0.2-0.3 1-1.1 0.9-0.9 0.2-0.2 0.4-0.4 0.5-0.7-0.3-1-0.9-2.4-1.5-3.6-0.3-0.1-0.5-0.1-0.7-0.1h-0.3c-0.2 0-0.3 0.1-0.5 0.1s-0.3 0.1-0.5 0.1-0.2 0-0.2 0.1c-0.1 0-0.2 0.1-0.3 0.1-0.2 0.1-0.3 0.1-0.4 0.1s-0.3 0.1-0.5 0.1h-0.2c-0.1 0.1-0.2 0.1-0.3 0.1h-0.4-1-0.7c-0.2 0-0.3-0.1-0.4-0.1l-0.4-0.2c-0.5-0.2-0.8-0.4-1-0.7-0.7-0.5-0.7-1.1-0.6-2.1 0.1-0.4 0.1-0.5 0.1-0.6-0.2-0.1-0.4-0.3-0.6-0.5-0.2-0.4-0.3-0.9-0.2-1.3-0.2-0.5-0.3-0.8-0.3-1.2 0-0.3 0.1-0.5 0.2-0.7l0.2-0.4-0.2-0.2c-0.2-0.1-0.2-0.2-0.3-0.2-0.3-0.2-0.5-0.3-0.7-0.5-0.4-0.4-0.6-0.8-0.6-1.4 0-0.5 0.2-1 0.6-1.3 0.1-0.1 0.2-0.3 0.3-0.3 0.1-0.1 0.7-0.5 0.8-0.7 0.4-0.3 0.7-0.6 0.9-0.9-0.2-0.9-0.3-1.8 0-2.4 0-0.1 0.1-0.3 0.1-0.4 0.1-0.1 0.1-0.2 0.2-0.2-0.1 0.1-0.1 0.2-0.2 0.3 0.1-0.2 0.1-0.4 0.3-0.7-0.1-0.3 0-0.3 0-0.3 0.1-0.4 0.3-0.8 0.7-1.1 0.1-0.3 0.3-0.6 0.5-1.1 0.1-0.1 0.1-0.2 0.2-0.3s0.1-0.2 0.2-0.3c0-0.1 0.1-0.1 0.1-0.2v-0.6-0.3c0-0.3 0.1-0.7 0.2-1.1 0.1-0.3 0.1-0.4 0.2-0.5l0.1-0.2c0.3-0.6 0.5-1 0.9-1.3 1.3-1.3 2.8-2.1 3.9-2.4 0.5-0.2 1-0.3 1.7-0.4 0.2 0 0.4-0.1 0.7-0.1 0.2 0 0.2-0.1 0.3-0.1s0.3-0.1 0.3-0.1c1.5-0.4 3-0.5 4.5-0.4 0.5 0.1 0.8 0.2 1.5 0.3 1.2 0.2 1.6 0.3 2.3 0.6 0.3 0.1 0.6 0.3 1.1 0.5 0.4 0.2 0.7 0.4 0.8 0.5 0.1-0.1 0.2-0.2 0.3-0.2 1.3-1 3.1-0.6 4.4 0.5l0.2 0.2c1.9 1.1 3.3 3.2 4.4 6 1.1 2.9 1.6 6.2 1.4 9.1-0.1 1.5-0.3 2.7-1 5.7-0.2 1-0.3 1.5-0.5 2.1-1 5-0.7 7.9 1.7 10.4 0.6 0.6 0 1.6-0.8 1.4-0.3-0.1-0.8-0.2-1.4-0.4-1-0.4-2.1-0.9-3.1-1.6-0.4-0.3-0.7-0.5-1-0.8l0.3 0.3s0.5 0.6 0.6 0.7c0.5 0.5 0.7 0.7 0.7 0.8 1 1.2 1.7 2.6 2 3.7 0.2 1.1 0.4 3.1 0.4 4.6 0.1 0.3 0.2 0.8 0.5 1.6 0.2 0.4 0.8 2.2 1 2.6 0.3 0.9 0.6 1.6 0.8 2.3 0.1 0.4 0.3 0.9 0.4 1.3 0.3 1.2 0.5 2.6 0.6 3.9 0.1 0.8 0 0.3 1.7 5.9 0.1 0.3 0.2 0.5 0.2 0.8 1.5 4.8 1.9 6.9 1.3 7.9-0.1 0.2-0.2 0.3-0.3 0.4-0.2 0.3-0.4 0.5-0.5 0.7l-0.4 0.4c-0.3 0.5-0.5 0.8-0.7 1.1 0 0-0.4 0.4-0.5 0.6-1.1 1.4-10 7.6-13.1 9.4 0.3 0.4 0.5 0.8 0.7 1.2zm12.9-11.2zm-10.1-40.6c0.2 0.3 0.5 0.6 0.9 1l0.2 0.2c0.1 0.2 0.3 0.3 0.5 0.5-0.7-0.6-1.2-1.1-1.6-1.7zm-2-6.4c0-1.9 0.3-3.6 1.1-6.5 0-0.2 0.1-0.3 0.2-0.6 0.3-1 0.4-1.6 0.5-2.1-0.1 0.1-0.1 0.2-0.2 0.4-0.3 0.4-1.4 1.9-1.5 2-0.6 0.8-1 1.3-1.5 1.9-0.3 1.1-0.2 2.6 0.2 4.2 0.5 2.6 1.4 4.7 2.7 6.3 0.2 0.2 0.4 0.5 0.7 0.8-1.5-1.7-2.2-3.8-2.2-6.4zm-20.1-17.9v0.1-0.1zm0.5-0.6h0.2-0.2zm-2.1 3.7zm-0.5 12.3h0.2-0.2zm6 3.4zm0.4-0.1zm-12.4 39.1v0 0zm-8.1 1.6zm18-41.8zm-2.9-3.7v-0.1 0.1zm-1.6-4.9zm-0.1 0.1c-0.1 0-0.1 0 0 0-0.1 0 0 0 0 0zm0.6-0.9zm2.7-5.8zm0-0.1zm-0.2 0.1h-0.2 0.3-0.1zm0.6-5.3c0-0.1 0 0 0.1 0.2 0.8 0.4 0.8 0.4 1.2 0.2l0.3-0.3c-0.5 0.7-1.4 0.5-1.6-0.1zm0 0v-0.3 0.1 0.2z" /><path class="st0" d="m32.3 54.1c-0.1 0.1-0.4 0.4-0.4 0.5-0.2 0.2-0.3 0.3-0.4 0.5-0.6 0.7-1.2 1.4-2.4 2.9-1.1 1.4-1.5 2-2.1 2.6-0.6 0.7-0.9 1.1-1.1 1.5-0.7 1.2-1.1 5-0.7 8.3 0.2 0.9 2.3 3.7 3.9 4.8 0.6 0.5 1.2 1 1.8 1.6 0.7-0.6 1.4-1.4 2.3-2.4 0.3-0.3 0.6-0.7 0.9-1.1 0.2-0.2 0.8-1 1-1.1 2.4-2.9 4-4.5 5.7-5.7-0.3-0.9-0.8-1.7-1.5-2.8-0.3-0.5-1.6-2.1-1.6-2.1-0.7-1-1.2-1.7-1.7-2.6-1.3-2.4-2.3-4.2-2.9-5.6v-0.1c-0.3 0.2-0.5 0.5-0.8 0.8zm-6.6 5.3c0.6-0.6 1-1.2 2-2.6 1.2-1.6 1.8-2.3 2.5-3 0.1-0.1 0.3-0.3 0.4-0.5 0.1-0.1 0.4-0.4 0.4-0.5 0.7-0.8 1.1-1.3 1.4-1.8 0.4-0.7 1.3-0.6 1.6 0.2 0.1 0.2 0.2 0.6 0.6 1.4 0.6 1.3 1.5 3.1 2.8 5.5 0.4 0.8 0.9 1.5 1.6 2.4 0 0 1.2 1.7 1.6 2.2 1 1.5 1.6 2.6 1.9 4 0.1 0.4-0.1 0.7-0.4 0.9-1.8 1.1-3.3 2.6-5.9 5.6-0.1 0.1-0.8 0.9-1 1.1-0.4 0.4-0.7 0.8-1 1.1-1.2 1.4-2.2 2.4-3.1 3.1-0.4 0.3-0.9 0.2-1.2-0.1-0.7-0.8-1.4-1.5-2-2-1.9-1.2-4.3-4.4-4.6-5.9-0.4-3.6 0-7.8 0.9-9.3 0.5-0.5 0.8-0.9 1.5-1.8z" /></g></g></g></svg>